<?xml version="1.0" standalone="no"?>
<!DOCTYPE svg PUBLIC "-//W3C//DTD SVG 20010904//EN"
 "http://www.w3.org/TR/2001/REC-SVG-20010904/DTD/svg10.dtd">
<svg version="1.0" xmlns="http://www.w3.org/2000/svg"
 width="1600.000000pt" height="1200.000000pt" viewBox="0 0 1600.000000 1200.000000"
 preserveAspectRatio="xMidYMid meet">
<metadata>
Created by potrace 1.14, written by Peter Selinger 2001-2017
</metadata>
<g transform="translate(0.000000,1200.000000) scale(0.100000,-0.100000)"
fill="#000000" stroke="none">
<path d="M0 8985 l0 -3016 28 15 c84 43 142 21 142 -55 0 -42 11 -71 40 -104
20 -23 35 -75 21 -75 -5 0 -13 -10 -16 -22 -4 -13 -28 -42 -53 -65 -25 -24
-43 -46 -39 -49 3 -4 2 -15 -4 -26 -8 -15 -17 -18 -42 -13 -18 4 -36 11 -41
16 -37 34 -36 98 -36 -2791 l0 -2800 8000 0 8000 0 0 6000 0 6000 -8000 0
-8000 0 0 -3015z m13224 -1191 c16 -6 18 -15 13 -71 -5 -61 5 -84 18 -43 4 13
15 20 31 20 36 0 34 -47 -3 -61 -14 -5 -33 -7 -40 -5 -17 7 -43 -50 -43 -95 0
-21 -8 -37 -25 -51 -18 -14 -25 -29 -25 -54 0 -19 5 -34 11 -34 6 0 24 -11 41
-25 16 -14 37 -25 47 -25 19 0 41 -38 41 -70 0 -23 -28 -27 -36 -6 -5 12 -11
13 -30 4 -21 -10 -22 -13 -9 -20 17 -10 20 -44 5 -53 -19 -12 -10 -25 17 -25
31 0 73 35 73 61 0 26 11 28 45 9 38 -21 42 -43 11 -59 -36 -20 -49 -88 -22
-123 15 -20 26 -14 26 14 0 10 7 18 16 18 10 0 14 6 10 15 -7 19 7 19 44 0 34
-18 36 -23 15 -52 -12 -17 -13 -31 -4 -82 13 -69 25 -76 66 -35 14 14 31 23
39 20 9 -3 14 2 14 14 0 29 40 62 67 55 31 -7 36 8 13 38 -26 33 -25 44 3 51
15 3 30 20 42 46 10 22 22 40 27 40 4 0 8 9 8 20 0 11 5 20 11 20 6 0 22 14
36 30 23 28 53 40 53 22 0 -5 -13 -21 -30 -37 -36 -35 -31 -45 19 -38 23 3 41
1 45 -6 11 -18 24 -13 28 11 2 13 11 24 21 26 13 3 17 -3 17 -23 0 -14 10 -43
22 -64 23 -41 19 -75 -9 -69 -9 2 -24 16 -33 32 -23 42 -34 42 -63 -2 -19 -29
-35 -41 -60 -46 -19 -4 -38 -13 -41 -22 -3 -8 -22 -22 -41 -30 -32 -13 -64
-58 -51 -72 3 -3 -6 -18 -20 -35 -29 -35 -28 -58 4 -72 12 -5 22 -15 22 -21 0
-21 47 -22 64 -2 19 21 66 25 66 4 0 -22 -28 -39 -56 -33 -23 4 -28 -1 -45
-40 -24 -56 -24 -53 6 -53 18 0 25 -5 25 -20 0 -24 -71 -100 -93 -100 -19 0
-37 29 -37 59 0 11 -5 23 -10 26 -18 11 -42 -17 -37 -43 3 -13 1 -38 -4 -55
-4 -18 -11 -44 -14 -59 -4 -19 -12 -28 -25 -28 -11 0 -20 7 -20 15 0 19 -14
19 -33 0 -8 -8 -17 -11 -21 -8 -13 13 -5 36 19 55 34 27 34 51 -1 38 -14 -6
-30 -10 -35 -10 -18 0 -9 48 16 84 14 20 25 43 25 50 0 8 7 19 15 26 21 18 19
33 -10 60 -28 26 -32 49 -12 69 9 11 9 12 0 7 -8 -5 -19 6 -30 28 -19 40 -25
43 -43 21 -19 -23 -36 -18 -60 15 -21 29 -23 30 -35 13 -8 -11 -10 -24 -5 -34
10 -17 -5 -39 -27 -39 -7 0 -13 -4 -13 -10 0 -5 -9 -14 -20 -20 -18 -10 -19
-9 -10 15 15 39 13 132 -3 138 -7 3 -19 23 -25 45 -7 22 -19 46 -28 53 -14 12
-21 8 -50 -26 -25 -30 -36 -37 -44 -29 -18 18 -7 49 18 52 13 2 26 11 30 20 3
9 15 24 26 33 18 15 15 45 -5 34 -5 -4 -13 4 -18 18 -5 13 -25 37 -45 55 l-35
31 30 25 c17 14 39 26 49 26 48 0 32 44 -26 70 -59 27 -67 26 -92 -19 -21 -38
-29 -61 -15 -48 9 10 33 -13 33 -33 0 -9 -9 -25 -19 -34 -15 -14 -24 -15 -40
-6 -12 6 -21 20 -21 30 0 12 -7 20 -16 20 -12 0 -14 7 -9 29 3 17 2 32 -4 36
-6 3 -11 2 -11 -3 0 -15 -71 -54 -87 -48 -9 4 -11 14 -8 29 5 18 0 28 -19 41
-19 12 -26 25 -26 49 0 35 -15 57 -39 57 -8 0 -22 7 -31 15 -20 19 -74 6 -78
-19 -4 -21 25 -56 47 -56 43 -1 45 -17 7 -63 -20 -24 -36 -53 -36 -63 0 -10
-7 -28 -15 -38 -8 -11 -15 -17 -15 -13 0 18 -2 23 -16 30 -21 12 -34 0 -34
-31 0 -20 -8 -33 -31 -46 -16 -10 -37 -15 -45 -12 -18 7 -18 37 0 61 12 16 16
17 29 6 22 -17 38 -5 31 24 -4 17 0 26 15 35 26 14 27 32 1 55 -22 20 -104 33
-114 17 -3 -5 8 -24 24 -42 17 -18 30 -36 30 -41 0 -12 -17 -11 -25 1 -4 7
-13 7 -25 0 -16 -8 -22 -6 -35 14 -11 16 -29 26 -57 30 -61 10 -128 52 -128
82 0 22 4 24 46 24 25 0 59 -8 75 -17 27 -16 31 -16 64 0 39 19 48 54 18 78
-24 21 -55 97 -48 119 8 24 21 26 29 5 3 -8 12 -15 19 -15 8 0 22 -9 32 -20
18 -20 45 -27 45 -11 0 5 -7 14 -15 21 -8 7 -15 28 -15 47 0 26 -5 36 -20 40
-42 11 -16 30 45 33 53 3 63 0 70 -22 6 -22 7 -21 17 10 9 26 16 32 39 32 31
0 35 -10 30 -73 -3 -34 34 -101 65 -117 35 -19 54 -6 55 37 0 37 0 38 16 16 8
-13 18 -23 22 -23 13 0 5 66 -12 90 -9 13 -17 30 -17 37 0 6 -7 18 -15 26 -13
14 -10 16 23 21 20 3 70 5 110 5 65 -1 75 -4 97 -27 l24 -26 10 26 c7 20 19
28 43 31 42 6 147 1 172 -9z m-8527 -106 c16 -15 22 -15 52 -2 27 11 41 12 72
2 42 -12 51 -32 19 -41 -26 -7 -48 -53 -32 -69 6 -6 37 -11 69 -12 l58 -1 -1
30 c0 17 -4 42 -8 58 -8 26 -7 27 35 27 23 0 50 7 59 15 14 13 19 13 38 -1 29
-20 19 -35 -18 -27 -25 4 -31 1 -41 -20 -10 -22 -8 -32 9 -66 20 -38 20 -41 3
-62 -16 -19 -21 -21 -49 -11 -35 12 -37 11 -46 -35 -9 -40 3 -47 54 -32 34 11
46 10 75 -4 33 -16 35 -16 45 3 6 11 17 20 25 20 17 0 20 16 6 24 -5 3 -14 20
-20 36 -9 28 -8 32 14 42 19 9 25 19 25 45 0 18 -4 33 -10 33 -5 0 -10 5 -10
10 0 19 30 10 62 -19 l33 -30 -34 -28 c-40 -34 -37 -54 15 -97 35 -29 63 -35
100 -23 16 6 23 2 32 -18 7 -14 12 -35 12 -47 0 -17 -4 -19 -27 -14 -76 19
-79 19 -102 -9 -11 -15 -21 -34 -21 -43 0 -11 -7 -13 -31 -8 -23 4 -35 1 -47
-14 -10 -10 -29 -22 -45 -26 -24 -6 -28 -3 -33 24 -4 22 -14 32 -33 38 -55 15
-95 -8 -126 -72 -18 -37 -22 -39 -59 -22 -22 9 -29 8 -46 -7 -11 -10 -17 -22
-14 -26 3 -5 -1 -9 -9 -9 -14 0 -17 10 -17 73 0 32 -3 37 -24 37 -13 0 -40 -7
-60 -15 -35 -15 -36 -16 -36 -71 0 -45 -3 -55 -15 -51 -8 4 -17 2 -20 -3 -18
-29 -102 15 -117 60 -4 13 -8 12 -30 -2 -42 -28 -58 -48 -58 -74 0 -14 -7 -27
-15 -30 -8 -4 -15 -15 -15 -25 0 -14 -7 -19 -25 -19 -16 0 -25 6 -25 15 0 9
-7 27 -16 40 -20 30 -21 86 -3 142 13 42 12 44 -16 73 -22 23 -38 30 -66 30
-32 0 -41 -5 -59 -36 -19 -30 -21 -39 -10 -59 7 -12 23 -28 36 -34 30 -13 31
-42 3 -87 -17 -28 -19 -39 -10 -71 14 -51 14 -53 -9 -53 -12 0 -31 -10 -44
-22 -13 -13 -44 -34 -70 -48 l-47 -25 -21 25 c-11 14 -24 24 -29 23 -5 -2 -16
8 -25 22 -12 19 -20 23 -29 15 -9 -7 -15 -8 -19 -1 -4 6 -13 8 -22 4 -10 -4
-19 4 -27 26 -6 17 -14 31 -18 31 -18 0 -17 -35 3 -83 11 -28 24 -69 28 -90 7
-34 4 -40 -22 -62 -32 -27 -43 -30 -53 -15 -4 6 -16 -8 -28 -32 -16 -31 -29
-44 -47 -46 -14 -2 -29 -8 -34 -13 -28 -26 -47 9 -50 96 -1 37 2 41 39 60 22
11 42 23 43 28 2 4 9 5 15 1 7 -3 3 2 -7 10 -15 12 -16 16 -5 17 8 0 5 4 -7 9
-20 8 -21 17 -23 112 -1 113 -6 138 -25 138 -7 0 -23 11 -36 25 -32 34 -60 33
-60 -1 0 -14 -9 -39 -21 -55 -15 -21 -21 -47 -22 -89 -1 -33 -5 -60 -9 -60 -5
0 -8 -6 -8 -14 0 -8 -12 -24 -27 -35 l-28 -21 22 -18 c11 -10 23 -30 25 -43 2
-14 11 -25 23 -27 29 -6 38 -17 30 -41 -7 -25 -41 -28 -64 -6 -22 19 -61 0
-79 -39 -17 -34 -4 -72 40 -120 35 -38 33 -64 -10 -92 -26 -18 -39 -21 -62
-14 -31 9 -45 0 -51 -34 -2 -10 -13 -25 -24 -32 -18 -12 -21 -11 -22 4 -1 9
-5 32 -9 50 -4 20 -2 38 7 48 9 11 10 17 2 22 -6 4 -14 19 -18 34 -4 16 -22
44 -41 65 -19 20 -34 40 -34 45 0 10 -74 48 -94 48 -24 0 -61 -42 -75 -82 -13
-40 -9 -58 13 -58 7 0 18 -11 24 -25 6 -14 16 -25 22 -25 5 0 10 -6 10 -14 0
-8 15 -25 33 -37 49 -35 60 -63 26 -65 -8 0 -22 -4 -32 -9 -12 -5 -24 -2 -37
10 -14 13 -23 14 -39 6 -24 -13 -41 -42 -41 -69 0 -26 -27 -79 -44 -85 -8 -3
-23 4 -34 16 -21 24 -62 104 -62 122 0 7 -11 24 -25 39 -14 15 -25 33 -25 40
0 7 -9 21 -20 31 -11 10 -20 25 -20 33 0 9 -7 13 -20 9 -45 -12 -59 70 -24
138 15 31 35 48 85 75 36 19 94 56 131 83 72 51 78 54 78 33 0 -25 18 -28 39
-7 12 12 17 27 14 39 -4 15 8 30 47 61 59 47 84 53 71 19 -11 -30 -6 -155 8
-190 7 -18 18 -28 31 -28 12 0 24 -9 29 -23 7 -17 16 -23 33 -21 12 1 29 3 37
3 10 1 12 10 7 36 -4 19 -2 52 4 74 12 46 -3 181 -23 193 -6 4 -27 8 -44 8
-18 0 -33 4 -33 9 0 4 28 30 61 56 52 41 64 47 80 37 33 -21 64 -14 88 19 18
25 20 33 10 45 -14 18 -10 21 56 54 57 29 129 19 172 -25 31 -32 32 -32 49
-14 19 21 13 58 -17 100 l-19 27 34 16 c25 12 41 14 59 7 14 -5 33 -7 44 -5
11 3 26 -3 38 -16 18 -20 18 -21 -4 -41 -18 -17 -21 -29 -17 -64 2 -24 10 -53
16 -65 7 -12 9 -37 5 -58 -5 -33 -2 -40 27 -63 68 -53 117 -42 140 32 11 40
11 41 -20 66 -35 27 -40 48 -17 81 13 17 14 26 4 43 -6 12 -11 42 -11 65 1 36
-4 47 -29 68 -34 29 -20 34 32 12 43 -18 84 -4 105 35 8 16 19 29 23 29 11 0
25 -56 17 -69 -3 -5 3 -20 13 -32 19 -23 21 -23 47 -9 15 8 39 37 54 65 22 42
33 51 61 56 19 3 47 17 63 32 16 15 36 27 45 27 9 0 27 7 39 16 12 8 44 18 70
21 26 2 48 6 49 7 9 9 125 -13 140 -26z m9089 -34 c18 -9 36 -24 39 -34 6 -18
42 -33 57 -24 4 3 8 12 8 20 0 17 22 18 38 2 23 -23 14 -47 -20 -56 -28 -7
-33 -13 -30 -35 3 -26 -9 -34 -42 -28 -4 1 -14 -3 -22 -10 -15 -12 -64 -4 -64
11 0 5 16 6 35 3 27 -4 35 -2 35 10 0 18 -21 27 -48 20 -12 -3 -31 2 -44 11
-12 9 -39 16 -59 16 -22 0 -42 7 -50 16 -12 15 -8 21 31 55 50 43 82 49 136
23z m-269 -45 c-4 -13 1 -26 14 -37 22 -19 25 -42 5 -42 -8 0 -17 -7 -20 -15
-3 -9 -11 -15 -18 -14 -7 1 -26 -3 -41 -9 -16 -7 -32 -12 -37 -12 -4 0 -10 -7
-14 -15 -3 -10 5 -20 23 -30 28 -14 30 -13 45 10 22 33 73 34 108 3 40 -36 42
-56 8 -73 -17 -9 -30 -19 -30 -24 0 -16 26 -30 47 -25 26 7 33 -4 22 -35 -7
-18 -15 -22 -34 -19 -36 7 -52 -15 -31 -46 15 -24 15 -27 -7 -52 -31 -36 -51
-24 -42 25 5 28 2 41 -9 51 -9 7 -16 22 -16 33 0 20 -1 20 -24 -2 -23 -22 -26
-22 -53 -8 -15 8 -43 21 -61 27 -22 9 -34 21 -38 39 -3 14 -13 47 -21 73 -21
59 -6 101 40 118 120 46 140 56 148 77 11 30 44 32 36 2z m-1500 -65 c-3 -19
-2 -32 3 -29 10 6 50 -25 50 -39 0 -14 33 -35 57 -36 12 0 25 -5 28 -11 4 -6
12 -8 19 -6 14 5 15 -85 1 -118 -13 -32 -53 -62 -91 -69 -27 -6 -39 -15 -51
-42 -9 -18 -21 -34 -27 -34 -6 0 -21 -3 -33 -6 -31 -8 -41 20 -17 47 13 14 15
22 7 27 -7 4 -16 19 -22 34 -7 20 -21 30 -51 38 -47 13 -55 44 -16 61 29 14
76 4 76 -15 0 -13 90 -96 104 -96 3 0 18 13 33 29 54 56 54 56 25 82 -15 13
-32 23 -38 21 -7 -1 -15 9 -18 23 -4 16 -11 23 -18 19 -7 -5 -9 1 -4 19 5 21
0 33 -24 57 -16 16 -34 30 -40 30 -9 0 -11 6 -9 28 0 4 7 6 15 4 8 -2 17 4 20
12 11 28 26 4 21 -30z m2045 6 c18 0 19 -4 13 -37 -6 -32 -3 -39 22 -58 24
-20 26 -26 18 -51 -7 -19 -18 -29 -30 -29 -12 0 -20 -7 -20 -17 0 -10 -5 -18
-10 -18 -12 0 -14 76 -3 107 4 12 3 25 -1 28 -18 10 -40 -7 -43 -33 -2 -17
-10 -28 -21 -30 -16 -3 -18 2 -16 35 3 43 -6 45 -53 12 l-28 -20 0 35 c0 30 5
38 33 53 36 20 85 32 105 27 8 -2 23 -4 34 -4z m-2899 -7 c-34 -7 -49 -31 -35
-54 16 -25 15 -39 -3 -39 -8 0 -15 -5 -15 -11 0 -6 -7 -8 -16 -5 -10 4 -25 -1
-36 -11 -17 -16 -22 -15 -74 1 -31 10 -58 15 -61 12 -3 -3 0 -19 6 -35 9 -21
10 -35 2 -49 -15 -28 -14 -92 3 -123 10 -21 11 -32 1 -55 -17 -42 0 -76 56
-113 70 -46 112 -39 112 18 0 35 -18 61 -42 61 -41 0 -94 91 -84 143 8 39 21
33 34 -15 17 -64 48 -111 64 -98 8 7 61 12 127 13 106 1 115 0 137 -22 12 -12
20 -29 17 -36 -4 -10 5 -13 35 -10 104 11 160 89 85 120 -19 8 -37 19 -40 24
-6 9 -64 25 -80 22 -5 -1 -4 5 4 13 24 30 103 10 181 -46 14 -9 23 -8 44 6 15
10 30 27 32 37 4 15 11 18 27 13 11 -4 36 -11 55 -15 40 -9 56 -23 46 -39 -5
-7 -19 -10 -37 -6 -38 8 -86 -17 -94 -49 -9 -36 0 -43 71 -50 55 -6 69 -5 85
10 11 10 20 28 20 41 0 35 18 39 46 9 16 -17 31 -25 41 -21 20 8 53 -2 53 -16
0 -6 -11 -26 -25 -44 -14 -18 -25 -37 -25 -42 0 -21 63 -70 97 -75 70 -12 99
33 68 104 -14 29 -15 43 -7 51 13 13 42 -6 42 -27 0 -20 59 -39 113 -37 55 2
59 -9 22 -52 l-24 -28 31 -44 c31 -44 32 -44 80 -38 39 5 48 4 48 -8 0 -9 -6
-21 -14 -27 -8 -6 -19 -25 -26 -41 -11 -26 -18 -30 -51 -30 -38 0 -39 1 -39
38 -1 33 -2 35 -12 17 -7 -11 -13 -36 -14 -55 0 -19 -4 -51 -8 -70 -7 -33 -5
-36 34 -62 40 -25 44 -26 66 -11 26 17 40 68 30 109 -6 23 -4 25 11 19 10 -4
26 -10 36 -13 14 -3 17 -10 11 -26 -4 -11 -7 -39 -6 -62 1 -46 -20 -116 -37
-122 -6 -2 -11 6 -11 17 0 12 -4 21 -8 21 -12 0 -48 -41 -55 -62 -7 -21 -35
-23 -72 -6 -46 21 -71 -1 -85 -76 -11 -60 -10 -70 11 -130 31 -85 22 -97 -54
-73 -30 9 -61 17 -70 17 -14 0 -16 7 -11 38 4 27 1 49 -11 71 -22 44 -14 62
25 55 48 -10 72 17 64 75 -6 45 -5 46 21 48 51 2 77 55 47 93 -25 31 -55 20
-75 -30 -17 -44 -28 -47 -70 -25 -27 14 -30 13 -52 -13 -30 -33 -31 -56 -4
-83 26 -26 22 -65 -6 -61 -44 7 -48 11 -42 52 3 28 1 40 -7 40 -21 0 -54 43
-67 89 -7 25 -26 57 -42 72 -28 27 -28 28 -12 53 24 36 12 88 -30 131 -23 24
-42 35 -62 35 -46 0 -72 -11 -79 -32 -8 -26 33 -116 55 -123 9 -3 25 -18 34
-35 17 -28 17 -31 1 -55 -18 -28 -34 -33 -34 -10 0 8 -9 19 -20 25 -13 7 -20
21 -20 41 0 29 -2 31 -27 24 -16 -3 -44 -14 -63 -24 -34 -18 -35 -20 -32 -67
2 -27 10 -62 18 -78 18 -36 18 -33 -10 -40 -30 -7 -38 -28 -26 -62 6 -14 10
-38 10 -54 0 -27 -3 -29 -36 -28 -42 2 -57 -15 -49 -56 3 -16 5 -36 5 -46 0
-9 9 -27 20 -40 23 -27 26 -63 7 -79 -11 -9 -20 1 -45 49 -18 33 -32 67 -32
75 0 19 -10 19 -46 0 -16 -9 -41 -13 -55 -10 -30 7 -39 -11 -39 -81 0 -48 -6
-57 -31 -43 -16 8 -21 5 -30 -18 -10 -26 -25 -42 -40 -43 -4 0 -10 16 -14 36
-3 21 -13 47 -21 59 -17 27 -11 47 19 60 34 15 33 55 -3 90 l-30 29 -21 -23
c-16 -17 -24 -20 -35 -10 -22 18 -17 55 11 73 19 12 25 25 25 52 0 30 -3 34
-19 29 -13 -4 -24 1 -34 15 -11 16 -23 20 -56 18 -60 -4 -55 -43 10 -76 28
-14 34 -22 32 -45 -1 -16 -8 -36 -15 -44 -7 -9 -17 -30 -23 -47 -14 -42 -42
-41 -66 4 -11 19 -19 45 -19 58 0 13 -9 35 -20 49 -16 21 -19 35 -14 78 7 54
-7 116 -29 133 -7 5 -24 12 -39 16 -21 5 -30 2 -39 -15 -9 -18 -7 -26 10 -50
27 -36 26 -43 -3 -62 -33 -22 -42 -74 -16 -102 26 -27 25 -57 -1 -81 -30 -27
-52 -9 -55 49 -4 58 -18 85 -49 93 -43 11 -70 -2 -84 -42 -12 -32 -107 -144
-123 -144 -3 0 -11 20 -17 45 -13 53 -24 56 -41 15 -7 -16 -16 -30 -21 -30
-13 0 -29 36 -29 67 0 47 -27 69 -76 64 -21 -2 -64 -50 -64 -72 0 -12 -14 -44
-31 -70 -20 -32 -28 -55 -24 -69 10 -31 -1 -39 -40 -27 -24 7 -35 16 -35 29 0
10 -7 30 -16 43 -9 14 -14 32 -10 40 4 10 -3 19 -18 27 -14 6 -27 19 -29 29
-9 35 -92 21 -124 -20 -7 -9 -12 -34 -12 -56 1 -41 -33 -125 -51 -125 -6 0
-10 10 -10 23 0 18 -6 22 -32 24 -45 3 -54 17 -34 48 18 27 16 55 -4 55 -6 0
-9 -13 -8 -29 1 -18 -8 -42 -25 -65 -16 -20 -34 -57 -42 -82 -7 -26 -24 -57
-37 -71 -19 -21 -20 -26 -8 -34 13 -9 13 -10 -1 -6 -9 3 -26 -1 -38 -9 -20
-15 -21 -14 -21 29 0 29 -5 47 -14 50 -10 4 -13 17 -9 46 6 45 -11 58 -21 17
-5 -19 -18 -28 -61 -41 -69 -22 -78 -33 -63 -72 16 -42 3 -87 -22 -80 -12 3
-20 0 -20 -8 0 -7 -7 -15 -15 -19 -17 -6 -18 -1 -19 86 -1 62 -15 81 -69 93
-49 12 -111 -46 -73 -67 14 -8 16 -18 10 -56 -7 -51 -20 -65 -44 -52 -10 6
-21 3 -32 -7 -16 -14 -18 -13 -28 11 -14 37 -13 52 5 86 15 29 15 30 -7 30
-13 0 -45 11 -72 25 -64 32 -88 32 -108 -3 -19 -31 -22 -123 -5 -134 20 -12
-9 -58 -37 -58 -23 0 -25 -3 -21 -42 2 -24 5 -52 7 -63 4 -27 -28 -32 -37 -5
-8 24 -33 23 -49 -2 -8 -13 -6 -21 7 -36 24 -26 21 -42 -7 -42 -23 0 -36 -16
-36 -45 0 -27 58 4 69 36 7 21 16 29 35 29 13 0 38 8 54 17 27 15 33 16 57 3
23 -12 30 -12 53 0 15 9 29 29 34 48 7 27 13 32 38 32 25 0 29 4 32 33 4 41
29 42 40 1 4 -17 17 -39 28 -49 28 -25 102 -16 138 18 23 22 105 57 131 57 5
0 12 -19 16 -42 8 -48 18 -58 56 -58 14 0 30 -5 35 -10 12 -12 84 52 84 73 0
17 66 57 94 57 23 0 24 -3 19 -42 -3 -24 -12 -51 -20 -60 -8 -9 -13 -25 -11
-35 4 -15 7 -13 18 10 15 31 29 33 73 10 28 -15 29 -18 12 -21 -11 -2 -35 -15
-53 -29 -17 -13 -36 -21 -42 -18 -5 3 -18 0 -29 -7 -17 -10 -23 -8 -46 20 -23
27 -29 30 -51 21 -14 -5 -30 -7 -35 -4 -17 11 -49 -15 -49 -40 0 -39 -21 -74
-49 -80 -19 -4 -31 -17 -43 -47 -10 -22 -15 -44 -13 -48 3 -4 20 -11 40 -14
44 -9 52 -22 29 -48 -15 -15 -27 -19 -55 -15 -21 3 -43 -1 -54 -9 -10 -8 -27
-14 -38 -14 -17 0 -51 -22 -100 -65 -38 -34 -107 -47 -107 -20 0 8 5 15 10 15
6 0 10 6 10 13 0 25 26 51 45 43 17 -6 17 -7 0 -26 -21 -23 -16 -25 20 -8 14
6 25 20 25 30 0 10 7 21 15 25 23 8 48 62 41 88 -4 14 0 28 9 35 17 14 20 40
6 40 -6 0 -17 -10 -25 -22 -8 -11 -28 -23 -43 -24 -105 -11 -125 -17 -141 -42
-16 -24 -15 -26 16 -52 35 -29 35 -54 0 -66 -11 -3 -26 -21 -34 -40 -19 -46
-50 -46 -45 1 0 6 -13 19 -29 28 -17 10 -30 22 -30 28 0 5 -10 9 -22 9 -13 0
-30 4 -38 10 -12 8 -12 11 3 28 29 32 -9 43 -73 21 l-33 -12 27 -14 c37 -19
22 -37 -24 -29 -48 7 -73 -16 -64 -60 5 -26 2 -31 -28 -45 -39 -19 -58 -15
-58 11 0 11 -5 31 -12 45 -9 20 -16 24 -32 19 -12 -4 -37 -8 -56 -9 -19 -1
-57 -5 -85 -9 -37 -6 -60 -3 -87 8 -68 29 -57 61 18 50 35 -5 45 -2 70 21 l29
26 -27 -5 c-20 -5 -31 0 -45 17 -10 13 -26 26 -36 30 -29 11 -17 41 18 44 28
2 55 25 55 47 0 6 -5 4 -10 -4 -5 -8 -22 -15 -37 -16 -15 0 -45 -9 -65 -19
-45 -22 -57 -15 -34 19 18 28 21 77 6 92 -7 7 -4 16 10 29 29 26 27 65 -4 65
-40 0 -50 23 -24 55 27 34 25 80 -4 136 -11 21 -17 43 -14 48 4 5 -3 13 -15
16 -14 5 -28 0 -43 -14 -12 -12 -25 -19 -28 -16 -11 12 -69 -23 -97 -59 -17
-21 -31 -40 -31 -42 0 -16 68 -74 104 -89 55 -23 62 -36 31 -65 -20 -19 -27
-21 -39 -11 -12 10 -21 9 -47 -5 -43 -22 -62 -41 -54 -54 4 -6 1 -18 -6 -26
-11 -13 -10 -18 4 -25 24 -14 21 -39 -4 -39 -26 0 -49 23 -49 50 0 11 -9 30
-19 41 l-19 21 -7 -21 c-8 -25 -20 -27 -29 -5 -10 27 -7 44 12 51 30 11 82 77
82 103 0 14 7 35 15 47 14 19 13 21 -10 27 -14 4 -25 11 -25 16 0 19 -39 31
-61 20 -17 -9 -23 -8 -35 7 -11 13 -17 14 -20 6 -8 -18 -24 -16 -24 2 0 8 6
15 13 15 19 1 56 36 67 65 11 30 6 45 -15 45 -8 0 -19 9 -25 20 -6 11 -17 20
-25 20 -8 0 -15 7 -15 15 0 8 6 15 13 15 25 0 77 31 88 52 9 16 7 28 -7 54
-10 18 -16 36 -13 39 4 3 33 9 65 13 58 7 59 7 62 42 3 30 -2 39 -39 71 l-43
36 22 28 c12 15 22 37 22 49 0 12 5 27 11 33 16 16 1 37 -15 23 -20 -16 -76 7
-109 43 -26 30 -28 30 -44 14 -17 -17 -17 -19 0 -48 10 -18 15 -40 11 -54 -4
-18 1 -27 30 -45 42 -25 44 -35 15 -51 -20 -10 -21 -17 -16 -76 l5 -65 -48 6
c-36 5 -50 3 -60 -9 -17 -21 -8 -119 13 -143 19 -21 13 -32 -15 -32 -36 0 -65
-41 -70 -97 -5 -55 10 -83 44 -83 9 0 18 -7 22 -15 3 -8 12 -15 21 -15 8 0 15
-7 15 -15 0 -18 -20 -20 -20 -2 -1 7 -6 5 -14 -6 -8 -10 -14 -39 -14 -64 0
-53 -9 -65 -27 -40 -9 13 -20 17 -34 12 -23 -7 -81 22 -81 41 0 16 28 26 32
12 3 -7 12 -9 21 -5 25 10 23 83 -2 97 -31 16 -59 12 -75 -11 -12 -18 -13 -25
-1 -43 7 -11 16 -38 20 -60 3 -21 11 -46 17 -56 13 -21 3 -53 -15 -48 -6 3
-14 18 -17 34 -4 24 -10 29 -30 26 -24 -2 -24 -2 -6 12 14 11 16 19 9 28 -6 7
-14 34 -17 60 -7 48 -26 76 -26 39 0 -27 -8 -26 -48 8 -33 28 -34 30 -21 66 9
24 26 43 49 56 33 19 52 45 76 106 5 12 25 32 44 45 47 32 52 68 12 97 -46 32
-95 28 -126 -11 -27 -34 -31 -38 -65 -69 -12 -10 -21 -30 -21 -43 0 -14 -4
-28 -10 -31 -5 -3 -10 -22 -10 -40 0 -33 -1 -34 -25 -23 -20 9 -29 7 -51 -8
-36 -25 -44 -30 -78 -43 -25 -10 -28 -15 -22 -44 4 -17 20 -46 37 -63 24 -25
29 -36 23 -58 -3 -14 -10 -29 -16 -32 -17 -11 -55 41 -77 104 -12 35 -29 75
-39 90 -14 22 -17 48 -15 154 l1 128 -25 0 c-23 0 -24 3 -18 33 4 17 13 39 20
47 11 12 11 19 0 40 -8 14 -14 31 -15 39 0 8 -7 22 -16 32 -18 20 -11 39 14
39 24 0 74 66 70 92 -2 18 -69 77 -89 78 -3 0 -16 -29 -28 -65 -19 -54 -21
-70 -12 -96 9 -26 8 -36 -4 -49 -8 -9 -15 -23 -15 -32 0 -8 -11 -25 -24 -37
-20 -18 -24 -20 -29 -7 -4 9 0 22 8 30 25 25 36 67 29 116 -5 40 -3 54 15 78
24 34 26 68 10 142 -11 53 -23 63 -34 30 -9 -28 -29 -25 -21 3 3 12 6 30 6 40
0 15 3 16 23 5 12 -7 31 -13 42 -13 14 0 21 -9 26 -35 10 -48 34 -63 89 -55
25 4 46 10 48 13 13 32 21 36 41 18 15 -14 23 -15 40 -6 12 6 21 15 21 20 0
18 -49 41 -81 38 -19 -2 -34 2 -36 10 -3 8 6 12 26 12 38 0 41 23 9 57 -12 13
-19 25 -17 28 10 9 49 -8 49 -22 0 -8 15 -20 33 -28 55 -25 68 -39 61 -71 -4
-24 0 -33 23 -50 15 -11 45 -24 66 -28 41 -8 49 -29 17 -46 -26 -14 -28 -76
-2 -84 62 -17 84 -17 103 0 23 21 27 92 4 100 -8 3 -17 16 -21 27 -4 12 -21
34 -38 49 -37 32 -27 51 25 46 28 -2 35 -8 37 -29 2 -15 14 -32 32 -42 25 -15
28 -21 23 -55 -4 -33 -2 -39 21 -51 34 -19 33 -33 -7 -51 -23 -11 -31 -20 -28
-35 10 -56 4 -83 -24 -108 -25 -21 -29 -32 -28 -68 3 -71 45 -90 126 -56 49
21 56 41 28 90 l-23 40 23 18 c13 10 31 21 40 24 27 9 30 43 6 60 -12 8 -27
15 -33 15 -18 0 -24 27 -10 40 9 6 30 8 54 4 23 -4 48 -4 57 0 13 5 11 11 -11
36 -15 16 -36 30 -46 30 -11 0 -18 7 -18 20 0 15 7 20 28 20 15 0 38 7 50 16
16 11 32 14 50 8 15 -4 38 -6 53 -5 16 1 37 -9 60 -29 18 -16 45 -33 59 -37
14 -3 44 -15 68 -26 40 -17 42 -20 26 -32 -15 -11 -17 -18 -9 -41 13 -34 62
-63 118 -66 37 -3 42 0 45 20 5 35 -37 92 -69 92 -66 0 -70 62 -5 74 39 7 44
17 21 36 -8 7 -15 16 -15 20 0 9 91 0 105 -10 17 -13 142 -33 160 -26 12 4 16
13 12 28 -4 12 -1 28 5 35 8 10 5 13 -16 13 -14 0 -26 5 -26 10 0 12 75 16
193 11 16 0 25 -5 22 -11 -3 -5 -1 -19 5 -30 9 -16 21 -20 60 -20 51 0 67 -13
30 -25 -31 -10 -24 -23 20 -35 44 -12 46 -16 24 -45 -12 -17 -27 -20 -82 -20
-62 0 -67 -2 -70 -22 -2 -16 4 -26 20 -33 13 -5 30 -14 38 -18 41 -24 61 -32
75 -32 28 0 72 29 78 50 5 20 10 21 61 15 48 -6 57 -5 62 10 10 24 -8 49 -37
53 -37 6 -45 19 -24 42 10 11 16 22 14 24 -11 10 -70 36 -81 36 -7 0 -35 12
-63 25 -27 14 -56 25 -63 25 -7 0 -11 4 -8 8 3 5 45 7 93 4 86 -3 153 -23 153
-43 0 -6 17 -26 38 -44 25 -24 37 -43 37 -62 0 -19 6 -28 25 -33 14 -4 45 -14
69 -21 44 -13 44 -13 70 18 20 24 34 31 62 31 20 0 46 5 57 11 28 15 52 14 52
-2 0 -33 33 -46 98 -40 52 5 66 10 79 29 12 19 24 24 59 24 39 0 44 3 50 28 4
15 16 35 28 44 30 24 11 53 -35 53 -27 0 -34 -4 -39 -25 -8 -35 -39 -36 -102
-3 l-53 28 40 7 c22 4 101 10 175 14 110 5 139 3 154 -9 25 -19 14 -47 -19
-47 -26 0 -33 -18 -13 -38 16 -16 -8 -42 -41 -42 -14 0 -35 -7 -45 -15 -11 -8
-33 -15 -48 -15 -21 0 -31 -6 -38 -25 -8 -21 -16 -25 -49 -25 -42 0 -57 -12
-63 -50 -2 -19 -12 -27 -42 -35 -44 -13 -76 -49 -58 -67 17 -17 94 -17 125 1
23 13 27 21 23 43 -5 24 -2 29 22 33 45 10 57 21 57 51 0 29 0 29 68 32 59 3
67 5 67 23 0 23 35 39 87 39 28 0 34 -3 29 -16 -4 -9 1 -28 10 -42 13 -20 21
-23 51 -19 19 3 41 11 49 18 21 17 17 47 -7 54 -12 4 -18 12 -15 21 4 9 -3 18
-17 23 -13 5 -31 21 -40 35 -10 14 -28 28 -42 32 -43 11 -25 44 23 44 10 0 35
9 56 21 21 11 45 18 52 15 21 -8 17 -33 -7 -50 -30 -21 -18 -32 48 -44 121
-24 194 -9 239 46 l21 26 29 -19 c16 -11 43 -22 59 -25 28 -5 30 -8 33 -53 4
-60 29 -77 84 -54 28 12 37 23 45 56 13 50 1 63 -65 71 -43 5 -47 7 -53 38 -9
44 -40 76 -89 92 -47 16 -63 31 -54 54 7 19 54 46 79 46 9 0 18 7 21 15 10 25
34 17 34 -11 0 -23 3 -25 23 -19 12 4 33 8 47 9 23 1 25 -3 31 -52 9 -72 29
-100 76 -104 l38 -3 5 -56 c4 -39 13 -68 34 -97 16 -23 32 -42 37 -42 12 0 39
42 39 60 0 9 -13 34 -30 56 -36 48 -37 54 -5 54 34 0 51 33 31 62 -26 37 -56
48 -83 31 -21 -14 -23 -14 -33 11 -5 14 -14 26 -19 26 -19 0 -19 40 0 50 10 6
19 17 19 24 0 19 -37 49 -54 43 -8 -3 -17 1 -20 9 -3 8 -12 14 -21 14 -23 0
-18 13 15 45 23 22 33 26 42 17 17 -17 27 -15 22 6 -4 15 35 41 106 70 4 1 7
-10 8 -26 0 -16 7 -45 15 -65 9 -19 18 -66 22 -103 6 -52 13 -72 31 -89 17
-16 20 -25 12 -33 -6 -6 -8 -27 -4 -55 6 -37 14 -49 44 -71 45 -31 68 -33 82
-7 16 30 12 45 -20 86 -16 21 -30 49 -30 62 0 13 -5 33 -11 44 -8 16 -7 25 5
38 10 11 13 27 9 46 -5 27 -10 58 -12 78 -2 14 -21 7 -21 -8 0 -22 -27 -18
-40 5 -8 15 -8 20 3 20 21 0 35 20 29 42 -3 14 -10 18 -27 14 -14 -4 -31 1
-45 14 l-23 20 24 19 c22 19 72 40 103 45 7 1 21 9 30 19 10 9 43 24 74 33 31
9 82 25 112 35 30 10 64 18 75 17 18 -1 18 -1 -2 -5z m-5691 -153 c4 -29 1
-35 -21 -40 -37 -9 -49 -35 -27 -59 15 -16 16 -24 7 -34 -16 -20 3 -33 56 -40
55 -7 76 14 39 38 l-26 17 32 31 c53 54 98 68 98 32 0 -8 9 -19 20 -25 19 -10
19 -11 0 -30 -25 -25 -25 -42 -2 -62 28 -25 82 -49 93 -42 6 4 36 1 66 -7 51
-12 57 -11 69 5 17 23 9 40 -24 56 l-27 13 32 9 c34 9 46 32 41 78 -2 19 2 26
17 28 16 2 23 -5 31 -36 11 -40 6 -52 -29 -65 -28 -10 -16 -39 20 -51 41 -14
65 -36 40 -36 -10 0 -34 -15 -53 -34 -29 -28 -33 -37 -25 -57 5 -13 23 -35 41
-48 32 -23 32 -23 58 -4 35 26 47 74 27 112 -18 36 -19 41 -3 41 6 0 22 10 35
22 17 16 26 19 35 10 8 -8 8 -15 -1 -25 -9 -11 -8 -17 5 -28 13 -10 17 -10 23
0 11 17 51 -3 51 -25 0 -12 -4 -13 -21 -4 -35 19 -52 -5 -45 -63 7 -60 26 -92
72 -119 28 -16 32 -23 23 -34 -6 -8 -26 -14 -44 -14 -46 0 -95 -27 -95 -52 0
-35 -23 -99 -34 -95 -6 2 -12 33 -14 70 -3 63 -2 66 25 79 29 14 43 52 24 71
-17 17 -64 -20 -57 -46 7 -29 -41 -123 -71 -136 -28 -13 -58 -58 -59 -91 -2
-43 -4 -50 -12 -50 -5 0 -9 20 -9 45 0 62 -24 87 -77 83 l-41 -3 -7 50 c-6 42
-13 56 -50 87 -24 21 -44 42 -44 48 -1 5 -2 17 -3 25 0 8 -7 15 -14 15 -7 0
-27 20 -45 45 l-32 45 37 0 c35 0 73 22 73 43 0 6 -7 19 -17 29 -35 39 -146
10 -123 -32 9 -16 6 -19 -18 -22 -22 -2 -28 -9 -30 -34 -5 -55 11 -78 70 -99
61 -20 80 -49 67 -98 -6 -22 -1 -39 20 -75 26 -43 31 -47 65 -45 35 2 36 1 36
-31 0 -32 29 -81 57 -99 23 -14 14 -24 -19 -19 -65 10 -128 -52 -113 -111 7
-26 51 -66 90 -82 17 -7 14 -9 -19 -18 -30 -7 -46 -6 -73 7 -37 18 -108 22
-118 6 -3 -5 -13 -10 -21 -10 -44 0 -81 -94 -51 -133 18 -25 96 -26 141 -2 31
17 38 18 46 5 5 -8 6 -18 4 -22 -3 -4 4 -8 15 -8 12 0 21 -4 21 -9 0 -14 -29
-22 -54 -15 -21 5 -24 1 -30 -35 -3 -23 -15 -55 -26 -73 -14 -24 -18 -42 -13
-74 6 -49 3 -52 -104 -63 -7 0 -20 -15 -29 -32 -15 -30 -15 -44 1 -96 5 -17 3
-23 -7 -23 -8 0 -36 -19 -62 -43 -39 -35 -47 -48 -45 -72 4 -54 0 -63 -31 -70
-16 -4 -32 -10 -35 -15 -3 -4 -34 -5 -70 -2 -54 4 -69 2 -85 -13 -22 -20 -53
-112 -49 -148 2 -23 -19 -77 -31 -77 -3 0 -16 11 -28 25 -19 22 -29 24 -89 23
-74 -1 -113 -11 -113 -29 0 -7 -8 -17 -17 -24 -16 -12 -14 -17 21 -59 20 -25
46 -51 57 -56 25 -14 24 -42 -1 -58 -11 -7 -20 -23 -20 -37 0 -14 -5 -25 -11
-25 -5 0 -8 -4 -4 -9 3 -5 1 -12 -5 -16 -6 -3 -13 2 -17 12 -3 10 -14 29 -23
43 -10 14 -21 40 -25 57 -3 18 -11 35 -16 38 -5 4 -9 15 -9 26 0 29 -33 23
-58 -11 -12 -16 -22 -44 -22 -63 0 -21 -7 -41 -19 -51 -30 -27 -43 -11 -24 28
15 32 14 38 -3 96 -14 46 -25 66 -46 78 -35 20 -35 30 -2 42 33 13 30 15 52
-23 12 -17 34 -37 51 -44 28 -10 33 -9 46 10 22 31 19 44 -18 82 -22 23 -37
31 -47 25 -24 -15 -40 1 -40 41 0 32 -7 44 -46 81 -30 28 -53 42 -67 40 -24
-3 -47 34 -47 74 0 12 -8 31 -17 41 -26 29 -97 57 -126 49 -40 -10 -153 -166
-127 -174 6 -2 8 -8 4 -13 -3 -5 -1 -9 4 -9 20 0 4 -42 -22 -55 -68 -35 -104
-74 -114 -123 -23 -106 -23 -110 7 -144 15 -18 26 -39 24 -45 -6 -17 -51 -16
-82 1 -30 17 -89 5 -148 -30 -39 -22 -42 -28 -40 -61 2 -35 0 -38 -33 -44 -81
-17 -105 -15 -96 7 9 22 -21 54 -51 54 -12 0 -23 -3 -23 -8 0 -4 -19 -13 -41
-20 -57 -18 -68 -4 -35 44 20 30 26 51 26 91 0 50 -2 53 -46 88 -26 19 -51 35
-56 35 -5 0 -31 -11 -58 -25 -56 -29 -75 -57 -85 -133 -6 -43 -11 -53 -30 -58
-13 -3 -36 1 -53 10 -16 8 -32 13 -35 10 -3 -3 -21 1 -40 10 -20 8 -62 18 -94
21 -32 4 -61 9 -64 11 -4 2 0 23 8 46 25 74 -1 108 -82 108 -46 0 -54 18 -21
47 33 28 58 84 46 103 -13 21 16 49 59 55 20 4 52 15 72 26 20 10 39 19 43 19
11 0 6 -36 -6 -48 -9 -9 -1 -16 31 -30 l43 -18 -53 -34 c-65 -43 -74 -57 -65
-102 6 -32 10 -36 47 -42 52 -8 115 9 146 40 20 20 24 32 19 57 -3 17 -13 38
-21 47 -8 9 -15 22 -15 28 0 20 99 37 197 33 11 -1 39 -16 62 -35 54 -45 111
-54 173 -26 51 22 76 66 58 100 -16 29 -60 60 -87 60 -30 0 -90 -30 -127 -65
-24 -22 -36 -26 -65 -21 -21 3 -42 14 -51 27 -32 48 -83 89 -120 99 -40 11
-45 19 -52 79 -3 24 -6 25 -68 22 -36 -1 -72 -4 -81 -7 -22 -6 -42 -47 -41
-83 1 -41 -42 -59 -99 -41 -29 10 -45 10 -64 2 -21 -10 -27 -8 -45 15 -21 27
-25 50 -12 69 18 27 412 98 412 74 0 -17 38 -11 52 8 26 37 71 49 207 57 47 3
79 10 90 19 10 9 44 24 77 35 32 11 94 33 136 49 42 16 101 33 131 36 83 11
115 58 131 191 8 58 40 170 56 190 4 6 10 22 14 37 8 35 39 102 76 163 16 28
34 62 40 77 6 14 17 29 24 31 7 3 23 25 35 49 41 78 145 168 126 108 -10 -32
20 -35 59 -5 40 30 68 82 60 112 -5 19 -2 20 48 16 43 -4 58 -10 78 -34 23
-28 27 -29 58 -18 17 6 32 17 32 24 0 19 -39 45 -67 45 -57 0 4 74 85 104 49
17 54 17 78 1 34 -22 52 -13 56 27 3 29 6 33 31 31 15 -2 39 -4 55 -5 18 -2
27 2 27 12 0 8 -6 16 -12 16 -7 1 -16 2 -20 3 -3 0 2 10 12 21 20 22 41 25 80
10 22 -8 24 -13 15 -30 -9 -17 -8 -20 8 -20 11 0 25 -7 32 -15 10 -12 8 -16
-14 -25 -14 -5 -26 -13 -26 -18 0 -17 25 -32 52 -32 24 0 28 4 28 30 0 24 4
30 21 30 11 0 17 5 14 10 -3 6 -15 10 -25 10 -18 0 -50 34 -50 53 0 13 67 37
105 37 36 0 43 -8 24 -27 -16 -16 -3 -43 20 -43 27 0 71 21 71 33 0 6 -7 18
-16 28 -15 17 -14 19 10 25 14 3 26 11 26 16 0 11 91 97 103 98 4 0 8 -4 9
-10z m8858 -65 c0 -19 4 -35 9 -35 13 0 21 -53 10 -64 -17 -18 -10 -38 11 -31
17 5 20 2 20 -24 0 -33 -18 -51 -30 -30 -5 7 -21 14 -37 17 -40 5 -48 17 -48
70 0 37 -3 46 -15 42 -8 -2 -30 -4 -47 -4 -18 0 -33 -4 -33 -10 0 -6 -23 -23
-50 -39 -55 -30 -61 -27 -56 33 2 25 7 34 17 31 47 -13 68 -12 87 7 23 23 68
36 77 22 9 -15 27 0 21 17 -9 22 2 33 35 33 27 0 29 -3 29 -35z m-4101 -279
c7 -8 9 -25 5 -40 -4 -16 -1 -32 7 -42 11 -13 10 -18 -6 -26 -22 -13 -143 -20
-150 -8 -2 4 4 19 15 32 11 14 17 28 14 30 -6 7 76 68 92 68 6 0 17 -6 23 -14z
m-3901 -86 c30 0 35 -15 12 -35 -16 -15 -19 -26 -14 -54 4 -20 13 -43 20 -52
24 -28 17 -49 -16 -49 -17 0 -42 -7 -56 -16 -33 -22 -56 -4 -32 23 18 21 32
122 18 138 -12 15 -21 66 -14 88 5 15 9 14 34 -13 15 -16 37 -30 48 -30z
m1257 30 c28 -5 87 -15 132 -23 44 -9 87 -15 95 -14 59 2 76 -4 81 -28 7 -38
-22 -49 -73 -29 -37 15 -42 15 -66 -1 -24 -16 -27 -15 -60 7 -19 13 -36 30
-39 39 -4 11 -27 21 -65 29 -51 11 -66 10 -110 -4 -49 -16 -51 -16 -80 6 -17
12 -30 23 -30 25 0 7 168 1 215 -7z m495 -60 c63 -13 135 -20 213 -20 64 0
117 -3 117 -8 0 -4 -14 -13 -31 -21 -26 -11 -38 -11 -88 3 -81 23 -121 21
-121 -4 0 -30 -42 -26 -135 15 -44 19 -90 35 -102 35 -12 0 -25 5 -28 10 -10
16 71 12 175 -10z m1297 -40 c16 -12 41 -20 64 -20 30 0 42 -6 55 -25 19 -30
13 -41 -28 -51 -18 -3 -40 -11 -49 -17 -24 -15 -49 -1 -49 27 0 20 -6 25 -44
30 -24 4 -58 18 -77 31 -18 14 -41 25 -51 25 -17 0 -17 -2 -3 -23 13 -21 13
-25 -1 -45 -25 -36 -81 -21 -65 18 21 51 35 59 117 63 43 1 85 4 92 5 8 1 25
-7 39 -18z m-6772 -176 c1 -23 8 -52 17 -65 14 -22 14 -27 -2 -59 -21 -42 -21
-119 0 -145 8 -9 24 -21 37 -26 26 -10 32 -52 10 -66 -7 -4 -19 -23 -26 -40
-13 -31 -17 -33 -62 -33 -48 0 -48 0 -59 -39 -6 -22 -10 -43 -9 -48 7 -43 -17
-43 -35 1 -8 18 -19 37 -25 40 -17 11 -13 36 13 91 17 35 22 54 15 67 -5 9 -9
30 -9 47 0 16 -4 32 -9 35 -4 3 -11 19 -15 36 -3 17 -17 41 -31 53 l-26 22 88
88 c101 101 128 110 128 41z m9124 -239 c5 -22 8 -41 6 -44 -3 -2 -18 -5 -35
-6 -27 -2 -32 1 -37 26 -9 44 -21 44 -33 0 -15 -56 -50 -66 -50 -14 0 13 -7
35 -16 49 -22 32 -9 46 43 48 32 1 40 6 52 31 7 17 21 38 30 49 15 17 16 15
23 -40 4 -33 11 -77 17 -99z m531 -14 c0 -35 5 -53 20 -66 25 -22 25 -41 1
-104 -10 -28 -17 -52 -15 -54 2 -2 -19 -8 -47 -13 -27 -6 -52 -8 -54 -4 -8 13
26 50 45 50 25 0 34 36 25 92 -9 55 -9 122 -1 143 11 30 26 5 26 -44z m-9962
27 c7 -7 12 -20 12 -30 0 -10 9 -26 20 -35 23 -20 29 -98 8 -106 -15 -5 -68
20 -68 32 0 13 -51 27 -83 23 -33 -4 -51 -40 -44 -92 2 -19 0 -45 -4 -57 -5
-13 -4 -25 1 -28 6 -4 10 -15 10 -27 0 -11 9 -32 20 -48 11 -15 24 -40 30 -55
8 -22 15 -26 35 -23 14 3 25 1 25 -4 0 -19 -21 -48 -35 -48 -8 0 -17 -12 -21
-27 -3 -16 -10 -39 -15 -52 -12 -28 1 -41 41 -41 14 0 50 -1 80 -3 30 -2 72 3
93 10 21 7 75 17 120 23 76 9 84 9 107 -10 14 -11 42 -27 62 -36 37 -16 59
-44 34 -44 -8 0 -26 -25 -41 -55 -32 -63 -51 -69 -87 -27 -23 27 -27 28 -126
30 -56 1 -111 6 -121 12 -14 7 -31 6 -58 -4 -22 -8 -51 -12 -65 -9 -22 4 -32
-2 -57 -37 -17 -24 -31 -49 -31 -57 0 -15 31 -18 46 -4 14 13 99 22 110 11 5
-5 42 -11 83 -14 40 -2 75 -7 78 -10 3 -3 0 -13 -8 -22 -7 -8 -15 -34 -18 -57
-5 -36 -10 -42 -32 -45 -19 -2 -35 6 -60 32 -22 24 -37 32 -43 26 -16 -16 -61
-11 -87 9 -14 11 -51 22 -84 26 -33 5 -77 17 -97 27 -25 13 -52 18 -85 16 -41
-3 -50 -7 -61 -30 -15 -31 -51 -38 -71 -14 -11 13 -19 11 -56 -10 -51 -28 -61
-29 -81 -9 -9 8 -24 15 -35 15 -11 0 -45 9 -76 20 -31 11 -59 17 -64 14 -4 -2
-16 0 -26 5 -10 5 -44 17 -76 26 -65 19 -78 36 -51 66 18 20 18 21 -4 40 -22
17 -26 17 -60 3 -21 -8 -38 -18 -40 -22 -12 -31 -20 -33 -56 -12 -21 11 -43
20 -49 19 -51 -6 -98 3 -125 25 -21 18 -37 24 -61 21 -27 -4 -33 0 -43 23 -6
15 -12 46 -13 69 -1 51 -35 93 -74 93 -18 0 -22 -3 -13 -9 18 -11 5 -61 -17
-61 -12 0 -13 -2 -3 -8 8 -5 0 -8 -21 -8 -28 1 -33 4 -29 20 3 11 23 37 44 58
39 39 43 61 16 95 -5 7 -6 17 -3 24 10 16 93 4 116 -17 24 -22 32 -64 19 -99
-13 -35 -11 -37 42 -41 69 -6 144 15 157 42 15 34 28 30 52 -17 20 -41 21 -41
62 -35 22 4 47 12 54 18 17 14 17 43 -1 58 -8 6 -20 28 -27 47 -14 43 -4 53
58 53 54 0 66 -20 61 -108 l-3 -66 42 -12 c30 -9 53 -10 78 -3 38 11 44 23 18
38 -12 6 -16 20 -15 43 1 18 -2 54 -6 80 -9 45 -8 47 17 57 14 6 51 12 81 13
54 3 55 3 58 -27 3 -19 -2 -33 -15 -42 -10 -8 -18 -26 -19 -41 0 -15 -4 -53
-8 -84 l-8 -57 35 -6 c43 -8 68 -1 107 31 25 21 28 30 23 57 -3 18 -12 39 -19
48 -8 8 -14 24 -14 34 0 10 -19 36 -42 57 -35 32 -40 41 -28 48 8 6 22 10 30
10 8 0 59 25 113 55 53 30 100 55 102 55 10 0 4 -69 -6 -76 -7 -4 -9 -21 -5
-46 4 -21 2 -47 -4 -58 -7 -13 -6 -47 2 -110 12 -88 14 -91 48 -112 27 -17 48
-21 90 -19 30 1 63 5 73 7 21 7 23 50 2 58 -9 3 -15 18 -15 40 0 19 -4 38 -10
41 -5 3 -10 18 -10 32 0 14 -11 38 -25 55 -14 16 -25 40 -25 53 0 13 -10 33
-22 45 -20 18 -21 24 -10 52 8 21 8 36 2 42 -21 21 -8 43 43 73 28 18 68 39
87 47 19 8 53 28 75 45 42 32 73 39 93 19z m10462 -120 c49 -28 57 -46 31 -72
-18 -18 -22 -18 -38 -4 -10 8 -32 20 -50 26 -25 8 -34 8 -44 -4 -10 -12 -8
-23 9 -58 12 -24 22 -46 22 -50 0 -12 -22 -6 -50 14 -15 11 -30 17 -33 13 -4
-3 -10 5 -15 18 -15 39 -24 117 -14 122 4 3 28 1 52 -4 35 -8 46 -7 59 6 20
20 25 19 71 -7z m-295 -27 c3 -11 21 -26 39 -35 18 -9 38 -21 44 -28 10 -13
12 -148 1 -148 -3 0 -21 -16 -40 -35 l-35 -34 -2 32 c-2 18 -7 34 -12 35 -6 2
-10 11 -10 20 0 11 3 13 11 5 16 -16 62 33 54 58 -3 10 -26 39 -51 64 -33 34
-43 52 -39 66 8 24 32 25 40 0z m-307 -196 c7 -14 14 -71 17 -128 4 -69 12
-115 26 -144 24 -53 24 -63 1 -63 -10 0 -27 -6 -37 -14 -16 -11 -17 -18 -8
-55 10 -39 2 -64 -12 -40 -4 5 -13 8 -21 5 -9 -4 -24 14 -44 54 l-30 60 24 11
c34 16 52 60 34 88 -10 17 -10 25 -1 39 41 58 45 72 29 107 -12 25 -21 32 -36
28 -25 -7 -26 11 -2 29 10 7 21 21 25 31 9 24 22 21 35 -8z m-1510 -33 c2 -13
-9 -37 -27 -61 -17 -21 -31 -49 -31 -61 0 -29 31 -80 48 -80 27 0 -7 -28 -42
-34 -22 -4 -48 -22 -75 -51 -23 -25 -43 -45 -45 -45 -2 0 1 20 7 44 5 24 7 59
3 79 -6 34 -10 36 -61 48 -30 7 -55 14 -55 17 0 2 9 15 20 29 11 14 20 31 20
38 0 7 17 15 37 18 26 5 48 18 73 46 33 35 41 39 81 38 38 -2 44 -5 47 -25z
m1178 -18 c46 -42 173 -40 157 2 -3 9 2 14 17 14 22 0 22 -1 7 -18 -21 -23
-22 -50 -1 -73 14 -16 15 -23 4 -49 -8 -19 -11 -51 -7 -86 3 -30 2 -52 -3 -49
-5 3 -20 0 -35 -7 -24 -11 -25 -15 -19 -55 7 -47 6 -48 -29 -32 -17 8 -37 37
-61 89 -20 43 -36 83 -36 89 0 6 -10 16 -22 22 -13 7 -26 17 -30 23 -13 19 -9
73 7 86 8 7 15 25 15 41 0 16 2 29 4 29 2 0 16 -12 32 -26z m-11381 -40 c8
-13 34 -58 56 -100 37 -68 39 -77 26 -92 -9 -9 -16 -21 -16 -27 -1 -5 -11 -10
-23 -10 -17 0 -24 8 -29 30 -3 17 -18 50 -32 74 -14 25 -23 49 -21 53 3 5 -1
20 -10 33 -19 29 -21 62 -3 68 19 6 34 -2 52 -29z m10453 27 c9 -6 36 -18 60
-27 30 -13 50 -30 68 -61 22 -39 37 -48 70 -44 6 1 16 -5 22 -12 9 -10 6 -22
-13 -47 -29 -39 -31 -62 -10 -80 8 -7 15 -18 15 -26 0 -7 10 -14 22 -16 49 -7
28 -68 -23 -68 -26 0 -29 4 -29 30 0 35 -10 38 -35 10 -24 -27 -43 -25 -57 6
-7 15 -23 27 -40 31 -33 7 -37 32 -8 58 11 10 20 24 20 31 0 16 -38 81 -43 74
-2 -3 -11 1 -19 8 -12 9 -14 22 -8 52 8 43 4 47 -25 26 -10 -7 -16 -20 -12
-29 7 -19 -12 -44 -38 -49 -27 -4 -50 -84 -34 -115 10 -19 21 -23 61 -23 26 0
48 -4 48 -9 0 -24 -14 -41 -35 -41 -25 0 -35 -17 -35 -59 0 -47 -43 -69 -70
-36 -11 13 -10 22 3 51 21 44 21 47 -1 39 -11 -3 -32 1 -48 10 -16 8 -40 15
-53 15 -20 0 -22 4 -16 23 3 12 9 33 12 47 4 13 30 47 60 74 49 44 54 53 51
85 -3 33 0 36 32 46 19 5 44 15 55 22 25 15 31 16 53 4z m-635 -75 c-5 -32 -4
-34 31 -40 41 -8 42 -12 21 -64 -10 -23 -14 -50 -10 -72 4 -23 -1 -64 -14
-110 -12 -41 -21 -86 -21 -100 0 -48 -49 -69 -70 -30 -13 24 -1 50 33 73 20
13 23 23 24 83 0 56 -2 65 -12 51 -14 -20 -34 -22 -40 -4 -9 21 -69 14 -108
-13 -38 -26 -64 -71 -52 -90 4 -6 4 -26 1 -43 l-6 -33 -68 2 c-73 2 -80 12
-37 46 13 10 38 43 55 73 17 30 35 55 39 55 14 0 44 64 43 91 -1 34 11 44 35
30 27 -15 70 13 94 62 27 53 38 67 55 67 9 0 11 -10 7 -34z m-293 -64 c0 -5
-13 -21 -30 -37 -24 -23 -29 -36 -28 -71 1 -45 -14 -74 -38 -74 -7 0 -19 -8
-26 -18 -7 -11 -30 -22 -52 -26 -38 -7 -39 -7 -31 21 4 15 11 42 15 58 12 51
34 95 48 95 8 0 12 6 9 13 -3 7 3 13 12 14 9 1 34 8 56 17 45 17 65 20 65 8z
m2684 -137 c17 -17 62 -20 71 -5 12 19 45 10 57 -15 10 -22 7 -29 -26 -65 -20
-22 -36 -45 -36 -50 0 -26 -22 -5 -41 40 -17 40 -25 49 -40 45 -28 -9 -59 12
-59 40 0 21 5 25 29 25 16 0 36 -7 45 -15z m-196 -51 c6 -53 65 -94 136 -94
42 0 50 -10 31 -36 -19 -25 -19 -59 0 -78 21 -21 20 -40 -2 -27 -14 7 -22 3
-40 -22 -22 -29 -33 -94 -14 -83 13 8 36 -23 25 -34 -14 -14 -52 -1 -57 21 -4
14 -14 19 -37 19 -21 0 -38 8 -55 28 -36 40 -31 57 20 83 36 18 47 20 60 9 13
-10 15 -9 15 6 0 32 -15 47 -40 39 -18 -6 -31 2 -71 45 -55 58 -53 54 -38 101
21 62 61 76 67 23z m-11996 -74 c-1 -7 2 -18 8 -25 9 -11 9 -88 1 -134 -1 -2
-8 0 -17 3 -9 4 -32 -3 -51 -14 -19 -11 -45 -20 -59 -20 -25 0 -25 0 -7 25 10
13 24 25 31 25 6 0 12 3 13 8 0 4 3 29 5 56 3 26 12 58 21 70 18 23 60 28 55
6z m11576 -30 c26 0 52 -25 52 -50 0 -27 41 -94 76 -124 25 -20 38 -25 63 -20
23 5 31 12 31 28 0 27 -9 38 -42 55 -32 16 -34 28 -12 59 18 25 39 29 48 7 3
-8 12 -15 19 -15 8 0 25 -10 39 -22 14 -13 33 -28 43 -33 17 -10 17 -12 1 -36
-15 -25 -15 -27 5 -53 12 -15 39 -38 60 -52 22 -14 39 -32 39 -42 0 -10 11
-29 25 -42 38 -36 32 -50 -20 -50 l-45 0 0 38 c0 31 -6 40 -35 60 -19 12 -42
22 -51 22 -9 0 -28 9 -44 20 l-27 19 -12 -25 c-6 -14 -11 -31 -11 -39 0 -14
45 -50 95 -75 17 -8 31 -24 33 -35 2 -12 19 -27 43 -38 43 -21 67 -53 51 -69
-6 -6 -17 -6 -32 2 -23 12 -90 6 -90 -9 0 -5 13 -19 29 -32 20 -16 26 -26 18
-31 -19 -11 20 -75 68 -112 47 -36 145 -141 145 -156 0 -21 41 -50 71 -50 22
0 32 -5 36 -20 6 -23 4 -23 37 -10 22 8 26 16 26 49 0 52 17 61 47 27 32 -37
29 -52 -16 -84 -39 -27 -65 -67 -59 -92 2 -7 -3 -15 -9 -17 -7 -3 -13 2 -13
11 0 20 -19 31 -33 17 -6 -6 -17 -11 -24 -11 -38 0 -93 86 -93 145 0 34 -14
48 -23 23 -7 -22 -59 33 -53 56 10 37 -30 85 -71 86 -16 0 -32 16 -56 53 -19
28 -48 66 -64 84 -35 39 -77 119 -68 133 4 6 20 3 44 -10 39 -19 61 -13 61 16
0 28 -153 144 -190 144 -16 0 -12 -41 7 -62 14 -16 15 -18 0 -18 -9 0 -19 5
-22 10 -3 6 -13 10 -21 10 -11 0 -15 -9 -14 -32 7 -116 -11 -137 -67 -82 -33
31 -43 63 -20 65 6 0 2 4 -10 9 -13 5 -23 14 -23 20 0 5 -9 10 -20 10 -10 0
-23 6 -27 14 -4 7 -18 16 -29 20 -24 7 -39 -14 -34 -49 2 -20 2 -20 -19 -1
-22 20 -28 52 -10 58 18 6 -2 38 -28 45 -29 7 -58 -22 -69 -70 -8 -39 -28 -28
-32 17 -2 25 -8 36 -17 34 -8 -2 -20 5 -27 15 -7 9 -28 19 -47 22 -73 9 -98
73 -52 136 17 22 30 29 56 29 25 0 33 -4 29 -14 -3 -9 5 -15 23 -19 22 -5 32
0 47 19 18 25 18 25 33 5 8 -12 22 -21 31 -21 9 0 25 -7 35 -14 10 -8 26 -12
36 -9 11 3 28 0 39 -6 17 -9 21 -7 26 14 4 16 13 25 26 25 18 0 20 7 20 73 0
83 7 98 31 68 10 -12 26 -21 37 -21z m-2501 6 c22 -25 59 -27 139 -11 26 6 34
2 57 -28 27 -36 35 -67 17 -67 -16 0 -12 -50 5 -56 22 -9 19 -19 -15 -57 -16
-19 -30 -40 -30 -46 0 -6 -5 -11 -11 -11 -15 0 -38 -31 -39 -51 0 -9 -11 -24
-25 -33 -29 -19 -32 -8 -7 25 44 58 50 213 10 256 -33 36 -89 31 -127 -9 -33
-35 -39 -66 -18 -98 10 -17 9 -22 -3 -30 -21 -14 -30 -12 -30 4 0 22 -33 12
-63 -18 -28 -28 -42 -32 -52 -16 -4 6 16 32 44 59 52 50 60 66 39 74 -10 3 -7
15 8 43 14 25 19 46 14 59 -15 40 54 49 87 11z m-2032 -15 c3 -5 21 -8 40 -6
30 3 34 0 37 -24 2 -20 8 -25 25 -23 12 2 24 -2 28 -8 3 -5 14 -10 25 -10 11
0 20 -10 24 -25 5 -21 12 -25 42 -25 22 0 37 -6 41 -16 9 -24 -11 -38 -36 -24
-29 15 -118 15 -137 -1 -18 -15 -14 -44 6 -45 23 -1 80 -27 80 -36 0 -10 109
1 133 14 11 5 17 18 15 30 -4 28 18 34 32 9 6 -12 17 -21 24 -21 13 0 64 -58
85 -97 9 -17 21 -23 45 -23 21 0 36 -6 40 -15 3 -8 12 -15 20 -15 7 0 16 -7
20 -15 5 -13 -5 -20 -18 -12 -3 1 -15 -8 -29 -21 -22 -21 -26 -22 -40 -8 -8 9
-18 21 -21 28 -4 10 -8 9 -17 -3 -11 -15 -15 -15 -44 2 -18 11 -37 30 -43 43
-11 25 -67 41 -87 26 -5 -5 -50 -4 -100 2 -76 8 -96 15 -127 39 -44 35 -81 37
-149 8 -39 -17 -52 -19 -64 -9 -14 12 -31 11 -113 -6 -19 -4 -44 -2 -58 5 -13
6 -35 16 -49 23 -14 6 -25 17 -25 24 0 7 -10 20 -22 28 -20 14 -18 21 6 17 4
-1 65 -4 134 -6 144 -5 162 2 162 61 0 24 6 37 23 45 46 24 48 49 7 68 -39 17
-34 34 11 42 34 5 63 -3 74 -20z m3005 12 c0 -9 -34 -69 -51 -92 -11 -13 -19
-36 -19 -52 0 -23 6 -29 35 -39 30 -10 39 -8 77 14 24 14 49 34 56 46 7 11 18
20 25 20 6 1 22 23 35 50 13 28 30 50 39 50 10 0 13 -5 8 -17 -19 -46 -17 -54
19 -89 42 -41 45 -52 14 -52 -138 -3 -260 -76 -217 -129 11 -13 9 -19 -14 -37
-28 -22 -37 -72 -18 -92 6 -5 11 -31 13 -59 3 -46 5 -50 31 -53 20 -2 27 -8
25 -20 -5 -24 -79 -25 -85 -1 -4 15 -8 16 -36 4 -18 -7 -32 -19 -32 -27 0 -15
-14 -28 -32 -28 -19 0 -16 14 12 46 30 35 31 41 4 49 -12 4 -27 1 -38 -9 -21
-19 -82 -25 -88 -9 -2 7 14 21 36 32 22 12 45 30 51 41 6 11 20 20 30 20 15 0
20 7 22 30 0 17 1 36 2 43 1 6 -4 11 -11 10 -6 -2 -14 6 -18 16 -5 16 -13 18
-44 14 -50 -7 -59 9 -27 48 14 17 26 39 26 50 0 10 9 36 20 56 11 21 20 46 20
56 0 25 98 127 116 120 8 -3 14 -7 14 -10z m-7845 -121 c28 -10 60 -23 73 -30
30 -17 30 -59 -1 -73 -22 -10 -44 -3 -120 38 -21 11 -32 12 -40 4 -14 -14 -47
-14 -47 -1 0 5 -11 12 -25 16 -17 4 -25 13 -25 28 0 13 3 26 7 29 13 14 130 6
178 -11z m1587 -47 c4 -6 26 -12 50 -13 56 -3 78 -10 108 -39 l26 -24 -38 -41
c-28 -31 -38 -50 -38 -75 0 -44 -30 -73 -75 -73 -29 0 -35 -4 -35 -21 0 -19
-4 -21 -37 -14 -21 4 -43 8 -50 8 -13 0 -6 25 14 48 8 9 16 27 18 40 3 13 9
45 13 71 7 37 5 59 -9 100 -10 29 -18 54 -19 56 -1 9 66 -12 72 -23z m7201
-96 l-8 -73 -35 -2 c-23 -1 -41 -10 -55 -27 -27 -33 -78 -49 -112 -36 -15 6
-38 8 -50 4 -20 -5 -23 -2 -23 25 0 18 6 33 15 36 8 3 17 14 20 25 4 10 14 19
23 19 9 0 46 25 82 55 35 30 71 55 80 55 10 0 25 9 36 21 l18 21 9 -25 c4 -14
4 -58 0 -98z m-1248 71 c3 -5 -5 -25 -19 -43 -18 -24 -26 -46 -26 -75 0 -34
-3 -42 -18 -42 -11 0 -29 -9 -42 -20 -13 -11 -30 -20 -40 -20 -9 0 -21 -5 -28
-12 -9 -9 -15 -9 -23 -1 -8 8 -5 13 10 18 22 7 37 45 27 70 -3 8 2 21 10 27
43 36 54 50 54 71 0 13 3 27 7 30 10 11 81 8 88 -3z m-8600 -24 c48 -11 74
-22 86 -37 11 -14 18 -18 23 -10 8 13 46 15 46 3 0 -18 -36 -42 -47 -31 -6 6
-18 6 -36 0 -19 -8 -26 -18 -29 -43 -2 -18 -8 -32 -14 -31 -6 1 -31 -4 -55
-11 -34 -10 -45 -19 -49 -39 -8 -40 -50 -67 -94 -60 -36 6 -37 5 -30 -22 8
-30 -6 -45 -43 -45 -18 0 -23 6 -23 25 0 34 -32 65 -60 58 -13 -4 -29 2 -43
14 -38 34 -93 63 -120 63 -36 0 -57 10 -57 26 0 10 12 14 40 14 37 0 40 2 40
28 0 37 60 68 160 83 41 6 88 17 105 23 36 15 106 12 200 -8z m5045 -46 c-24
-15 -1 -25 56 -23 30 1 54 -2 54 -7 0 -11 67 -30 124 -36 22 -2 44 -8 50 -14
5 -5 17 -10 27 -10 9 0 28 -9 42 -20 14 -11 31 -20 39 -20 7 0 29 -8 48 -18
19 -10 58 -24 85 -31 28 -7 64 -19 80 -26 17 -8 62 -27 100 -44 39 -17 91 -42
118 -56 26 -14 54 -25 62 -25 8 0 20 -9 27 -20 7 -11 18 -20 25 -20 6 0 15 -5
19 -12 4 -7 3 -8 -4 -4 -7 4 -12 2 -12 -3 0 -6 8 -11 18 -11 24 0 101 -29 82
-31 -8 0 2 -5 23 -10 40 -9 67 -29 67 -49 0 -7 -7 -9 -16 -6 -9 3 -12 2 -9 -5
4 -5 18 -9 33 -7 14 2 27 -2 29 -9 3 -8 -6 -9 -33 -3 -27 6 -43 5 -60 -6 -13
-9 -25 -11 -28 -6 -3 6 1 13 10 16 9 4 15 9 12 12 -11 10 -58 -20 -58 -38 0
-10 -4 -18 -9 -18 -5 0 -7 8 -4 19 4 16 0 18 -29 17 -26 -2 -32 -6 -30 -20 2
-11 -1 -15 -7 -11 -15 9 -14 38 2 55 6 7 1 6 -13 -3 -23 -16 -50 -24 -37 -11
15 16 -19 30 -55 24 -21 -4 -38 -3 -38 1 0 5 -7 9 -15 9 -20 0 -19 -16 3 -30
15 -10 14 -11 -7 -6 -14 3 -32 0 -40 -7 -14 -11 -14 -10 -2 6 8 10 9 17 3 17
-6 0 -15 -8 -21 -17 -9 -17 -10 -17 -16 0 -4 9 -13 17 -21 17 -8 0 -14 8 -15
18 0 13 -2 12 -9 -5 -6 -15 -18 -23 -33 -23 -14 0 -30 -7 -37 -15 -7 -8 -17
-12 -23 -8 -6 4 -3 11 8 20 11 7 13 13 7 13 -7 0 -22 -11 -34 -25 -26 -31 -33
-31 -35 -4 -1 12 -7 27 -13 33 -8 8 -9 7 -5 -5 4 -10 1 -20 -5 -24 -8 -5 -8
-10 0 -20 8 -10 4 -14 -18 -17 -16 -2 -38 -1 -48 3 -16 6 -14 8 8 8 27 1 46
17 34 29 -4 3 -16 1 -26 -6 -11 -7 -30 -12 -43 -12 -13 0 -29 -6 -36 -12 -10
-11 -11 -10 -6 3 4 10 2 20 -4 24 -6 3 -14 -1 -17 -9 -3 -9 -12 -16 -20 -16
-19 0 -34 -33 -27 -60 l6 -23 -27 19 c-14 10 -29 31 -32 46 -5 23 -9 26 -25
18 -25 -14 -32 -12 -25 5 8 22 -17 18 -32 -5 l-13 -21 -29 21 c-17 12 -30 17
-30 12 0 -6 6 -12 13 -15 9 -3 9 -8 -2 -18 -10 -11 -15 -11 -18 -1 -6 14 -33
16 -33 2 0 -5 -7 -10 -15 -10 -8 0 -15 5 -15 10 0 6 5 10 10 10 6 0 10 5 10
10 0 6 -11 8 -24 6 -25 -4 -52 15 -39 27 3 4 2 7 -4 7 -6 0 -13 -7 -17 -15 -5
-15 -58 -16 -73 -2 -15 16 -35 7 -30 -13 3 -11 1 -20 -3 -20 -5 0 -15 -3 -24
-6 -12 -4 -16 0 -16 16 0 13 -5 20 -12 17 -7 -2 -13 -16 -13 -30 1 -15 -6 -29
-13 -32 -10 -3 -12 0 -8 10 4 10 -1 15 -14 15 -23 0 -27 15 -5 24 8 3 15 12
15 20 0 7 7 17 16 20 9 4 14 9 11 13 -4 3 -13 0 -21 -6 -11 -9 -20 -10 -35 -2
-25 14 -31 14 -31 1 0 -5 9 -10 20 -10 11 0 20 -7 20 -15 0 -19 -19 -19 -34
-1 -6 8 -29 17 -51 20 -37 6 -39 5 -21 -9 16 -12 17 -18 8 -27 -9 -9 -12 -8
-12 5 0 13 -6 16 -23 12 -14 -4 -30 1 -43 13 -14 13 -30 18 -47 15 -15 -3 -34
1 -44 8 -10 8 -18 10 -20 4 -9 -25 -23 -39 -30 -30 -14 18 -50 34 -59 25 -15
-14 -74 1 -75 19 0 10 -2 11 -6 4 -7 -20 -23 -15 -23 6 0 11 -5 23 -12 27 -8
5 -9 0 -6 -14 5 -18 2 -22 -15 -22 -20 -1 -20 -2 -4 -11 9 -5 17 -18 17 -29 0
-10 6 -20 13 -23 18 -6 4 -17 -26 -19 -21 -2 -26 -6 -21 -20 6 -19 -3 -23 -24
-10 -10 7 -10 15 -2 36 10 28 10 28 -25 24 -33 -4 -49 6 -23 14 8 3 8 9 0 24
-10 17 -11 17 -12 2 0 -20 -15 -24 -25 -8 -3 6 -17 7 -31 4 -27 -7 -34 10 -8
20 13 5 14 9 4 21 -10 12 -9 16 6 22 34 12 46 43 17 43 -15 0 -14 2 3 15 10 8
26 14 34 15 13 0 13 -1 0 -10 -13 -8 -12 -10 3 -10 9 0 17 -7 17 -15 0 -8 3
-15 8 -15 4 0 18 -3 32 -6 l25 -6 -25 20 c-32 27 -20 39 15 16 l28 -18 -17 32
c-18 36 -8 44 12 11 21 -33 38 -8 21 30 -13 30 -29 41 -29 21 0 -5 -10 -10
-22 -10 l-22 0 23 21 c26 24 23 43 -7 47 -23 4 -29 17 -12 27 6 4 17 1 25 -5
12 -10 18 -10 30 0 12 10 19 10 27 2 16 -16 41 -16 32 0 -5 7 -3 8 5 4 8 -5
14 -1 18 12 4 17 9 19 29 12 15 -6 24 -6 24 0 0 6 7 10 15 10 12 0 13 -3 3
-19 -6 -11 -18 -17 -26 -13 -10 3 -13 1 -8 -6 7 -11 40 -11 51 0 3 3 8 16 10
28 2 12 7 25 11 29 4 3 4 -2 1 -11 -4 -10 -5 -18 -3 -18 3 0 12 -3 20 -6 12
-5 15 -2 10 10 -4 12 0 16 15 16 12 0 21 -4 21 -10 0 -5 5 -10 11 -10 5 0 8 4
4 9 -3 5 7 19 21 30 22 17 24 22 10 27 -9 3 -24 0 -34 -7 -14 -11 -15 -11 -5
1 10 11 9 17 -4 32 -20 22 -42 23 -49 3 -4 -8 -10 -15 -16 -15 -5 0 -6 5 -2
11 4 8 0 9 -15 4 -14 -4 -21 -2 -21 7 0 18 97 46 138 40 36 -5 42 -17 12 -25
-11 -3 -20 -11 -20 -19 0 -18 52 -40 76 -32 11 3 7 -2 -8 -12 -16 -10 -28 -24
-28 -31 0 -16 27 -17 32 -1 3 8 9 8 24 0 10 -6 13 -12 7 -12 -7 0 -13 -5 -13
-11 0 -5 4 -8 9 -5 5 4 11 0 14 -6 3 -10 7 -10 17 -1 11 10 11 15 1 27 -10 12
-9 19 9 38 l23 23 -7 -29 c-8 -34 24 -72 52 -61 15 6 15 8 -3 15 -18 8 -17 9
8 9 32 1 34 11 7 36 -27 25 -25 32 9 27 22 -3 28 -8 24 -23 -4 -15 -2 -18 13
-12 13 5 16 3 12 -8 -5 -12 3 -15 33 -15 22 1 37 5 35 11 -2 6 -11 9 -22 8
-22 -2 -54 14 -54 27 0 6 9 10 21 10 11 0 18 4 15 9 -12 19 35 -2 49 -22 l15
-21 0 22 c0 17 6 22 25 22 14 0 25 4 25 8 0 4 -16 6 -36 4 -24 -3 -34 -1 -30
6 3 6 2 13 -4 17 -5 3 -10 0 -10 -7 0 -10 -3 -9 -10 2 -8 12 -11 12 -28 -3
-10 -9 -32 -16 -48 -16 -17 1 -22 3 -11 6 10 3 17 14 17 28 0 13 6 27 13 32 6
4 55 8 107 8 85 0 95 2 92 18 -2 13 4 17 25 17 21 0 24 -3 13 -10z m-4774 -11
c68 -12 98 -31 43 -28 -26 2 -45 -5 -72 -25 -20 -16 -37 -32 -37 -37 0 -5 -12
-15 -27 -23 -16 -8 -40 -26 -55 -40 -15 -14 -30 -26 -35 -26 -4 0 -24 -12 -44
-26 -20 -14 -58 -32 -83 -39 -40 -12 -48 -12 -52 0 -8 19 52 92 82 99 13 4 24
11 24 16 0 6 9 10 21 10 12 0 23 8 26 20 3 13 14 20 28 20 32 0 55 10 55 24 0
16 41 66 55 66 6 0 38 -5 71 -11z m9082 -87 c3 -17 10 -22 31 -22 16 0 42 -3
59 -6 l31 -6 -6 -65 c-7 -73 7 -95 39 -66 12 11 28 14 52 10 30 -5 38 -2 54
20 23 31 42 23 42 -18 0 -24 -4 -29 -24 -29 -13 0 -31 -10 -40 -22 -12 -16
-18 -19 -22 -10 -8 17 -49 15 -68 -3 -17 -17 -36 -20 -36 -5 0 19 -106 -8
-149 -39 -63 -45 -116 -48 -127 -6 -7 29 5 53 37 69 16 8 23 19 21 32 -1 12 4
27 13 34 13 10 15 9 15 -6 0 -33 18 0 29 54 18 84 12 101 -23 67 -22 -23 -26
-18 -10 14 12 23 20 28 47 27 25 -1 33 -6 35 -24z m-9794 -118 c0 -10 -4 -34
-8 -51 -6 -26 -4 -33 8 -33 8 0 20 -9 26 -20 9 -16 8 -22 -5 -26 -18 -7 -45
12 -45 32 0 16 -45 19 -55 5 -3 -5 -20 -7 -38 -5 -24 4 -38 0 -56 -17 -19 -18
-25 -19 -32 -8 -13 20 -11 42 6 83 17 39 27 42 87 24 37 -11 41 -10 66 15 29
30 47 30 46 1z m4076 -148 c0 -8 -27 -27 -60 -43 -33 -15 -60 -32 -60 -38 0
-5 -15 -17 -33 -25 -17 -8 -31 -21 -29 -28 1 -8 -5 -11 -20 -7 -17 4 -32 -3
-55 -25 -18 -16 -38 -30 -45 -30 -8 0 -18 -4 -23 -9 -16 -14 -148 -61 -172
-61 -12 0 -24 -4 -27 -9 -6 -8 -134 -37 -148 -33 -5 1 -8 -2 -8 -7 0 -10 -93
-27 -192 -36 -39 -3 -68 -2 -68 4 0 13 26 21 68 21 43 0 212 32 292 55 30 9
64 19 75 22 11 2 29 8 40 13 11 5 49 18 84 30 35 12 75 30 89 41 14 10 29 19
35 19 6 0 33 18 61 39 41 31 183 120 194 121 1 0 2 -6 2 -14z m8047 -138 c26
-17 61 -40 76 -51 28 -19 29 -19 51 2 27 26 52 27 65 4 7 -15 0 -22 -46 -42
-44 -20 -61 -22 -82 -15 -29 12 -80 2 -92 -18 -15 -23 -10 -58 13 -88 l22 -30
-33 -34 c-22 -22 -46 -36 -72 -40 -21 -3 -39 -11 -39 -16 0 -12 45 -24 64 -17
7 3 24 -2 36 -10 19 -13 24 -13 31 -2 5 8 9 20 9 27 0 6 4 12 9 12 5 0 13 17
18 38 5 20 14 37 21 36 7 -1 26 -2 42 -2 22 -2 30 -7 30 -21 0 -27 -27 -51
-57 -51 -18 0 -24 -4 -19 -15 3 -9 -4 -21 -19 -31 -32 -21 -32 -50 0 -80 34
-32 32 -42 -16 -63 -31 -14 -49 -16 -77 -10 -20 5 -40 9 -44 9 -5 0 -8 7 -8
16 0 12 7 14 28 9 24 -5 30 -1 43 27 19 40 15 56 -18 69 -17 6 -32 5 -53 -6
-39 -20 -38 -20 -46 20 -4 25 -11 35 -25 35 -11 0 -19 6 -19 13 0 20 22 37 47
37 41 0 76 85 47 114 -26 26 -52 18 -100 -30 -50 -49 -70 -51 -79 -7 -4 15
-11 39 -16 52 -12 28 4 51 35 51 14 0 28 11 39 30 l18 30 -31 18 c-16 9 -29
24 -27 32 3 16 23 17 117 5 42 -5 60 -3 75 9 27 21 28 21 82 -16z m1019 -661
c16 -17 40 -48 53 -67 13 -19 40 -47 60 -61 28 -20 41 -38 51 -73 15 -54 3
-80 -25 -56 -12 10 -15 10 -15 -4 0 -26 -34 -18 -47 11 -7 15 -13 40 -13 56 0
19 -14 46 -44 80 -40 48 -66 101 -66 133 0 22 15 16 46 -19z m-133 -54 c8 -10
25 -44 37 -76 12 -32 34 -69 48 -82 22 -21 25 -28 16 -52 -11 -33 -26 -33 -36
-1 l-6 23 -1 -22 c-2 -37 -27 -26 -40 17 -6 22 -16 40 -20 40 -5 0 -12 26 -16
58 -3 31 -8 69 -11 85 -5 31 6 35 29 10z m459 -241 c29 -44 31 -119 4 -134
-41 -23 7 -74 71 -76 23 0 45 3 48 9 4 5 19 9 36 9 36 0 37 15 4 60 -13 18
-22 37 -19 41 11 19 45 8 62 -20 22 -36 57 -169 48 -179 -4 -3 -31 -9 -59 -12
-45 -4 -51 -8 -48 -25 2 -11 5 -54 5 -95 1 -72 0 -75 -23 -78 -14 -2 -35 -11
-48 -19 -21 -14 -23 -14 -30 2 -4 12 1 24 16 36 15 12 25 36 31 73 5 30 13 63
19 74 14 27 -7 63 -49 84 -43 21 -50 22 -50 4 0 -7 -7 -19 -16 -27 -13 -10
-17 -10 -24 2 -5 7 -17 14 -27 14 -11 0 -19 11 -24 33 -4 18 -17 44 -29 57
-18 19 -20 27 -11 44 12 21 61 30 61 11 0 -5 5 -10 10 -10 14 0 8 89 -9 118
-15 28 -8 54 13 46 8 -3 25 -22 38 -42z m438 -310 c37 3 75 -18 89 -48 11 -25
56 -52 67 -41 10 9 -17 68 -27 61 -5 -3 -9 0 -9 6 0 7 7 9 16 6 9 -3 22 -6 30
-6 22 0 49 -49 35 -63 -6 -6 -11 -21 -11 -33 0 -17 -8 -23 -34 -28 -52 -10
-64 -67 -21 -98 23 -17 24 -17 45 9 13 17 20 37 17 51 -7 36 10 35 39 -3 19
-26 34 -35 55 -35 19 0 29 5 29 14 0 9 12 16 28 18 19 2 27 9 27 23 0 17 9 21
70 28 39 5 109 8 157 7 66 -1 98 4 130 18 70 30 95 34 128 17 34 -18 39 -47
14 -84 -13 -18 -14 -28 -5 -47 16 -36 14 -94 -3 -94 -8 0 -18 5 -21 10 -3 6
-17 10 -29 10 -13 0 -30 9 -37 20 -8 11 -25 21 -39 22 -19 2 -28 -4 -41 -33
-10 -19 -24 -41 -33 -48 -9 -8 -16 -18 -16 -24 0 -8 3 -8 11 0 14 14 39 6 39
-14 0 -26 -51 -83 -74 -83 -12 0 -27 -5 -34 -12 -9 -9 -12 -9 -12 1 0 8 6 19
14 25 7 6 16 23 20 38 5 23 2 27 -24 33 -21 5 -39 2 -56 -10 -16 -10 -33 -13
-47 -9 -12 5 -35 9 -52 10 -16 1 -58 7 -93 13 -57 10 -64 9 -82 -9 -23 -23
-29 -24 -67 -9 -51 21 -68 27 -85 33 -10 3 -18 13 -18 22 0 13 5 15 23 8 35
-12 129 -6 145 10 19 19 6 56 -19 56 -11 0 -27 -7 -35 -15 -10 -10 -21 -12
-31 -6 -9 4 -24 6 -35 3 -14 -3 -21 2 -25 17 -3 12 -13 21 -24 21 -36 0 -55
85 -24 110 32 27 4 70 -47 70 -25 0 -29 -3 -23 -17 17 -41 17 -53 1 -59 -20
-8 -46 12 -46 35 0 9 -14 24 -31 34 -27 15 -30 21 -24 45 4 15 8 41 10 57 2
17 4 32 4 35 1 2 15 -12 32 -33 24 -29 37 -37 59 -35z"/>
<path d="M13017 7643 c-14 -21 -29 -55 -32 -75 -8 -42 -12 -44 -50 -26 -34 15
-49 0 -40 -41 4 -20 17 -35 36 -45 30 -15 31 -15 51 19 11 19 24 35 29 35 5 0
9 6 9 12 0 7 25 36 55 64 50 47 62 70 30 57 -8 -2 -20 5 -27 16 -18 30 -32 26
-61 -16z"/>
<path d="M4356 7615 c-8 -8 -19 -15 -24 -15 -5 0 -15 -28 -22 -61 -16 -76 -8
-93 47 -97 40 -3 40 -4 53 -58 7 -29 16 -54 20 -54 4 0 12 -11 18 -25 17 -37
36 -31 71 26 30 49 31 53 15 70 -10 11 -35 22 -56 25 -28 5 -38 11 -38 25 0
10 5 21 10 24 20 12 11 73 -16 104 -37 44 -59 54 -78 36z"/>
<path d="M4627 7541 c-54 -92 35 -164 115 -92 29 26 31 30 19 58 -13 33 -57
63 -93 63 -16 0 -30 -10 -41 -29z"/>
<path d="M2803 6875 c-47 -33 -45 -107 4 -150 12 -11 23 -33 25 -50 3 -26 8
-30 35 -33 47 -5 56 20 48 124 -4 46 -12 90 -19 99 -17 23 -67 29 -93 10z"/>
<path d="M11285 7100 c-11 -5 -36 -9 -56 -9 -47 -1 -51 -7 -32 -47 13 -27 14
-36 3 -49 -7 -8 -20 -15 -30 -15 -26 0 -77 -29 -85 -48 -4 -11 0 -21 11 -27 9
-5 32 -22 49 -37 40 -34 45 -34 79 -3 20 18 26 34 26 65 0 30 5 42 18 47 40
14 62 46 62 90 0 45 -7 50 -45 33z"/>
<path d="M11376 7091 c-3 -4 -1 -34 4 -65 l9 -57 -39 -36 c-22 -19 -40 -42
-40 -50 0 -8 12 -30 26 -49 32 -42 74 -46 118 -11 35 28 38 68 7 101 -31 33
-27 46 13 39 28 -4 36 -1 46 17 7 13 9 36 6 55 -6 31 -10 34 -51 41 -25 3 -48
10 -51 15 -7 11 -41 12 -48 0z"/>
<path d="M11748 7049 c-26 -15 -34 -74 -14 -104 14 -21 24 -25 64 -25 83 1
105 43 56 107 -19 25 -32 33 -57 33 -18 0 -40 -5 -49 -11z"/>
<path d="M12121 6996 c-17 -18 -22 -32 -17 -50 5 -22 3 -26 -14 -26 -12 0 -39
-9 -60 -20 -37 -19 -40 -23 -40 -64 0 -47 17 -70 61 -81 17 -4 33 0 49 13 24
20 29 56 19 132 -3 19 1 26 17 28 20 3 34 35 34 78 0 22 -24 16 -49 -10z"/>
<path d="M8510 6882 c0 -4 5 -13 11 -19 6 -6 15 -30 19 -52 7 -37 5 -41 -14
-41 -11 0 -28 -5 -36 -10 -13 -9 -10 -14 15 -35 17 -14 37 -25 46 -25 21 0 30
22 18 41 -17 26 -9 30 51 23 42 -5 64 -3 75 6 21 18 19 29 -10 40 -14 5 -25
16 -25 23 0 9 -15 17 -37 21 -21 3 -51 13 -67 21 -32 17 -46 19 -46 7z"/>
<path d="M10303 6853 c-34 -4 -59 -33 -50 -57 3 -7 19 -16 36 -19 l31 -6 -25
-25 c-45 -45 -27 -86 37 -86 27 0 40 5 48 19 16 31 12 57 -11 73 -19 12 -20
17 -9 37 9 17 9 30 1 47 -6 13 -14 23 -18 22 -5 0 -23 -3 -40 -5z"/>
<path d="M7171 6805 c-28 -41 -22 -54 42 -83 59 -27 99 -24 111 9 12 34 -15
75 -62 94 -51 22 -64 19 -91 -20z"/>
<path d="M11838 6798 c-9 -7 -21 -30 -28 -52 -17 -53 -1 -80 57 -97 85 -23
126 18 88 90 -25 50 -88 81 -117 59z"/>
<path d="M8260 6786 c0 -19 19 -32 57 -40 44 -10 58 -29 41 -55 -18 -29 -3
-49 63 -83 64 -34 69 -34 103 -7 20 15 26 29 24 48 -3 22 -9 27 -38 29 -43 4
-63 20 -57 43 3 10 0 25 -7 33 -27 37 -186 64 -186 32z"/>
<path d="M11263 6743 c-25 -5 -53 -38 -53 -63 0 -8 16 -41 35 -73 19 -32 35
-65 35 -73 0 -9 10 -14 30 -14 25 0 30 5 39 38 19 68 14 120 -16 158 -16 18
-32 33 -38 33 -5 -1 -20 -4 -32 -6z"/>
<path d="M10101 6688 c-29 -18 -31 -24 -25 -57 8 -47 10 -48 71 -56 46 -6 53
-4 63 15 21 39 9 73 -36 96 l-41 22 -32 -20z"/>
<path d="M9060 6683 c-28 -10 -48 -34 -43 -52 2 -10 27 -27 54 -39 41 -17 56
-19 82 -10 57 19 61 30 29 70 -20 25 -33 34 -42 28 -7 -5 -24 -4 -37 1 -14 5
-25 9 -26 8 -1 0 -9 -3 -17 -6z"/>
<path d="M7345 6629 c-11 -5 -28 -24 -38 -40 -14 -26 -15 -38 -7 -69 13 -47
34 -56 83 -35 29 12 37 22 43 50 9 49 -1 80 -31 93 -14 7 -27 12 -28 11 -1 0
-11 -5 -22 -10z"/>
<path d="M8892 6628 c-20 -20 -14 -48 9 -48 20 0 21 -4 17 -44 l-5 -43 56 -25
c88 -40 97 -42 120 -19 12 12 21 29 21 39 0 20 -39 62 -57 62 -6 0 -22 9 -36
20 -16 13 -38 20 -54 18 -24 -3 -28 1 -31 25 -4 29 -20 35 -40 15z"/>
<path d="M8600 6613 c0 -5 5 -25 10 -45 12 -42 34 -58 79 -58 17 0 39 -5 49
-11 25 -16 73 1 83 28 7 19 1 26 -39 48 -60 33 -182 59 -182 38z"/>
<path d="M10355 6580 l-38 -39 19 -41 c16 -33 24 -40 49 -40 31 0 95 49 95 73
0 27 -52 87 -75 87 -6 0 -28 -18 -50 -40z"/>
<path d="M8033 6599 c-16 -16 -1 -66 28 -97 14 -15 47 -33 73 -41 42 -12 49
-12 66 4 45 40 18 79 -84 124 -55 24 -68 25 -83 10z"/>
<path d="M9940 6596 c-26 -10 -37 -21 -44 -46 -9 -30 -7 -35 19 -56 47 -38 76
-40 103 -8 28 33 23 68 -15 102 -14 12 -27 22 -27 21 -1 0 -17 -6 -36 -13z"/>
<path d="M8403 6569 c-38 -11 -37 -9 -19 -52 20 -48 75 -86 122 -85 22 0 46
-1 54 -3 11 -3 14 4 13 26 -4 56 -22 82 -73 104 -54 23 -52 23 -97 10z"/>
<path d="M9248 6548 c-37 -13 -57 -76 -31 -95 21 -16 115 -17 131 -1 26 26 9
73 -35 96 -25 14 -29 14 -65 0z"/>
<path d="M8757 6420 c-7 -20 -22 -33 -42 -40 -22 -7 -35 -20 -43 -43 -20 -57
-16 -74 28 -98 22 -13 40 -26 40 -30 0 -7 -75 -59 -85 -59 -4 0 -12 6 -20 13
-10 11 -10 18 1 38 16 29 18 42 4 34 -5 -3 -17 3 -27 15 -24 28 -41 25 -49 -7
-3 -16 -10 -40 -16 -55 -5 -15 -7 -31 -4 -37 4 -6 -7 -22 -24 -37 -16 -15 -30
-36 -30 -46 0 -21 67 -88 88 -88 21 0 13 -15 -17 -33 -38 -22 -43 -22 -39 6 2
17 -2 23 -22 25 -19 2 -31 -6 -47 -31 -13 -18 -23 -41 -23 -51 0 -10 -13 -37
-29 -61 -26 -38 -27 -45 -16 -72 15 -35 38 -43 95 -33 68 12 95 39 95 92 0 38
5 49 33 72 18 16 32 37 32 49 0 12 11 44 24 70 23 44 24 50 11 81 -16 38 -6
56 32 56 25 0 60 42 103 123 21 40 23 50 12 67 -17 27 -15 30 11 30 40 0 69
50 30 50 -10 0 -27 7 -37 15 -32 24 -56 18 -69 -15z"/>
<path d="M9485 6423 c-24 -6 -55 -41 -55 -60 0 -28 21 -53 62 -74 35 -18 44
-19 64 -8 30 16 38 40 29 95 -4 32 -11 44 -23 44 -9 0 -26 2 -37 4 -11 2 -29
2 -40 -1z"/>
<path d="M7230 6397 c-18 -9 -31 -29 -44 -69 -22 -69 -17 -97 23 -119 28 -17
29 -16 65 18 42 41 44 61 15 132 -24 56 -23 56 -59 38z"/>
<path d="M8040 6395 c-12 -14 -11 -23 8 -58 26 -49 27 -57 8 -57 -30 0 -64
-40 -76 -90 -11 -46 -11 -52 6 -65 11 -8 37 -18 59 -23 34 -7 44 -5 68 15 16
13 33 23 38 23 15 0 10 46 -6 60 -8 7 -15 19 -15 26 0 7 -11 21 -25 30 -30 20
-31 28 -5 61 20 26 20 26 1 57 -24 37 -43 43 -61 21z"/>
<path d="M8337 6403 c-2 -5 -7 -20 -11 -35 -5 -22 -1 -31 18 -43 14 -9 26 -26
28 -38 4 -28 64 -58 98 -50 53 13 66 72 26 120 -31 36 -146 69 -159 46z"/>
<path d="M9257 6379 c-79 -22 -73 -121 7 -135 35 -6 43 -3 63 20 51 59 4 136
-70 115z"/>
<path d="M8964 6366 c-41 -18 -54 -41 -43 -79 14 -49 57 -87 99 -87 45 0 60
15 60 56 0 44 -16 82 -43 105 -26 22 -33 22 -73 5z"/>
<path d="M8186 6310 c-20 -35 -14 -110 9 -110 7 0 37 -12 65 -26 38 -19 55
-23 63 -15 12 12 17 111 6 111 -4 0 -10 8 -14 19 -5 16 -73 51 -101 51 -5 0
-18 -14 -28 -30z"/>
<path d="M8277 6101 c-26 -38 -26 -41 -11 -84 10 -31 20 -44 32 -43 14 1 16
-7 14 -41 -3 -32 0 -43 11 -43 15 0 57 41 57 56 0 5 10 14 23 19 30 14 60 76
51 110 -4 15 -17 30 -30 35 -13 5 -24 14 -24 20 0 5 -22 10 -49 10 -45 0 -50
-3 -74 -39z"/>
<path d="M9153 5812 c-32 -5 -47 -29 -45 -70 3 -40 10 -47 61 -62 29 -8 42 -5
97 23 42 22 63 38 63 51 1 12 -4 16 -14 12 -8 -3 -21 4 -29 16 -15 22 -84 37
-133 30z"/>
<path d="M8782 5717 c-40 -42 -17 -115 32 -103 36 9 52 -8 40 -42 -10 -25 -8
-31 8 -41 23 -14 38 -6 38 21 0 11 12 32 28 46 15 15 35 39 45 55 17 26 17 28
-5 57 -21 28 -25 30 -93 30 -62 0 -74 -3 -93 -23z"/>
<path d="M8580 5680 c-8 -15 -21 -20 -55 -20 -58 0 -71 -6 -94 -44 -17 -27
-18 -36 -8 -68 11 -36 13 -37 75 -44 l64 -7 44 47 c49 52 54 70 23 87 -17 8
-20 17 -15 40 7 35 -17 41 -34 9z"/>
<path d="M5688 7116 c-27 -10 -48 -48 -48 -88 0 -22 76 -61 97 -50 21 12 63
74 63 93 0 10 5 21 10 24 6 3 10 12 10 18 0 15 -92 17 -132 3z"/>
<path d="M5828 6983 c-8 -10 -18 -35 -21 -55 -5 -31 -1 -42 23 -68 46 -50 109
-38 130 25 22 66 -10 115 -75 115 -27 0 -47 -6 -57 -17z"/>
<path d="M5286 6849 c-32 -34 -47 -110 -28 -146 12 -22 66 -35 102 -26 27 7
50 52 50 96 0 29 -8 41 -44 71 -24 20 -46 36 -48 36 -2 -1 -16 -15 -32 -31z"/>
<path d="M5505 6763 c-11 -2 -31 -19 -44 -38 -26 -39 -24 -91 6 -121 26 -25
90 -13 125 24 19 21 34 29 48 25 29 -8 25 6 -5 17 -14 5 -30 22 -36 37 -21 55
-40 67 -94 56z"/>
<path d="M4570 6719 c0 -47 30 -139 44 -139 6 0 19 11 31 25 11 13 32 27 46
30 22 5 28 2 39 -24 16 -41 7 -66 -19 -51 -40 21 -70 12 -116 -37 -25 -26 -45
-48 -45 -50 0 -1 11 -14 25 -29 14 -15 25 -38 25 -52 0 -21 -3 -23 -26 -18
-14 4 -36 19 -48 33 -21 25 -25 26 -54 14 -33 -14 -62 -50 -62 -76 0 -9 7 -29
15 -46 12 -23 20 -28 38 -24 34 9 59 -25 65 -86 5 -50 11 -61 65 -116 19 -20
20 -25 7 -37 -8 -8 -33 -16 -55 -18 l-39 -3 -1 37 c0 24 5 38 13 38 20 0 14
15 -18 43 -16 15 -30 32 -30 37 0 6 -9 10 -19 10 -24 0 -65 -51 -107 -134 -29
-57 -35 -61 -75 -69 -38 -8 -45 -6 -57 11 -11 16 -19 18 -49 12 -37 -9 -63 -4
-63 11 0 5 -8 9 -17 9 -17 -1 -17 -2 -1 -13 9 -7 16 -21 15 -31 -1 -10 7 -23
18 -29 11 -6 38 -23 60 -38 29 -19 46 -24 60 -18 11 4 34 8 52 8 37 1 66 26
58 51 -4 13 2 19 26 24 52 10 52 10 46 -55 -5 -59 -4 -62 29 -99 30 -34 34
-42 29 -80 -8 -62 -1 -77 35 -72 30 4 48 32 35 52 -4 6 -4 22 -1 36 8 29 36
32 60 5 42 -47 107 -30 126 33 21 73 49 87 74 37 30 -56 86 -39 86 27 0 22
-10 44 -34 69 l-34 38 8 93 c5 51 11 96 13 99 13 12 68 -23 73 -47 11 -56 21
-75 45 -89 49 -28 99 9 99 73 0 12 -16 41 -35 63 -47 55 -45 77 8 96 13 5 23
-1 35 -23 9 -16 34 -37 55 -46 45 -21 62 -14 90 34 34 57 -2 135 -77 167 l-29
13 24 12 c13 7 26 16 29 19 3 3 14 11 25 17 11 6 21 20 22 30 3 32 23 106 34
125 7 14 5 29 -7 57 -29 63 -52 82 -100 82 -55 0 -68 -17 -62 -80 5 -49 -4
-75 -16 -45 -4 13 -9 13 -25 3 -15 -9 -26 -9 -44 -1 -14 7 -35 9 -46 6 -25 -6
-54 -67 -45 -95 3 -10 1 -18 -5 -18 -6 0 -11 9 -11 20 0 36 -38 97 -73 119
-19 12 -50 21 -70 21 -26 0 -36 5 -40 20 -4 15 -14 20 -36 20 -21 0 -38 8 -53
25 -30 35 -38 31 -38 -16z"/>
<path d="M5266 6538 c-24 -35 -19 -63 19 -104 30 -32 39 -36 67 -30 42 8 78
43 78 75 0 15 -11 39 -25 54 -21 22 -34 27 -75 27 -39 0 -52 -4 -64 -22z"/>
<path d="M5278 6127 c-24 -19 -28 -30 -28 -74 0 -46 3 -54 40 -87 22 -20 50
-36 63 -36 58 1 104 80 82 144 -25 73 -101 99 -157 53z"/>
<path d="M5001 5883 c-27 -34 -35 -65 -28 -110 11 -68 70 -96 132 -63 39 21
45 52 24 133 -8 30 -18 42 -44 53 -48 20 -61 18 -84 -13z"/>
<path d="M5191 5867 c-17 -28 -19 -39 -10 -70 9 -34 48 -67 78 -67 15 0 45 61
43 85 -3 19 -67 85 -83 85 -4 0 -17 -15 -28 -33z"/>
<path d="M3840 5845 c-13 -14 -31 -25 -41 -25 -10 0 -21 -5 -24 -11 -4 -5 -18
-14 -32 -20 -38 -14 -27 -48 22 -65 48 -17 104 -11 162 18 99 49 110 94 28
115 -71 18 -88 16 -115 -12z"/>
<path d="M4668 5691 c-40 -39 -39 -94 4 -149 40 -52 58 -58 103 -36 84 40 87
155 5 196 -47 24 -80 21 -112 -11z"/>
<path d="M3754 5548 c-16 -10 -32 -19 -36 -20 -4 -2 -11 -24 -14 -50 -6 -45
-5 -49 29 -83 58 -58 137 -40 170 39 20 48 22 111 5 123 -24 15 -124 9 -154
-9z"/>
<path d="M5853 5130 c1 -11 5 -20 10 -20 4 0 13 -13 18 -30 6 -17 18 -30 27
-30 15 -1 14 -3 -2 -15 -11 -8 -17 -18 -13 -21 4 -4 13 -1 21 5 10 8 16 9 21
1 10 -17 25 -11 25 10 0 14 7 20 23 20 18 0 19 -2 7 -10 -12 -8 -11 -10 5 -10
11 0 30 -7 42 -15 18 -13 22 -13 34 1 10 13 10 20 0 36 -7 11 -10 23 -6 26 3
4 10 0 15 -8 7 -10 10 -11 10 -2 0 6 4 12 8 12 4 0 8 -9 8 -20 0 -11 -4 -20
-9 -20 -5 0 -7 -7 -5 -16 2 -10 15 -18 32 -20 26 -3 27 -2 10 11 -17 13 -12
14 44 15 63 0 69 3 53 30 -15 23 -1 33 20 14 15 -14 19 -14 19 -3 0 29 -19 37
-60 25 -27 -7 -40 -16 -40 -27 0 -10 -5 -21 -11 -25 -14 -8 -31 16 -24 35 7
17 -13 41 -33 41 -8 0 -30 -12 -49 -26 -28 -21 -34 -23 -39 -10 -3 9 -14 16
-23 16 -14 0 -14 2 -1 10 8 5 24 7 35 5 11 -3 14 -2 7 1 -10 5 -10 9 0 22 11
13 10 15 -5 9 -10 -4 -28 -7 -39 -7 -12 0 -22 -8 -25 -20 -6 -21 -30 -22 -25
-1 1 6 -7 11 -17 11 -11 0 -23 5 -26 10 -12 19 -44 11 -42 -10z"/>
</g>
</svg>
